<?xml version="1.0" encoding="utf-8"?>
<!-- Generator: Adobe Illustrator 25.4.5, SVG Export Plug-In . SVG Version: 6.00 Build 0)  -->
<svg version="1.1" id="Layer_1" xmlns="http://www.w3.org/2000/svg" xmlns:xlink="http://www.w3.org/1999/xlink" x="0px" y="0px"
	 viewBox="0 0 552.8 106.5" style="enable-background:new 0 0 552.8 106.5;" xml:space="preserve">
<style type="text/css">
	.st0{fill:#FFFFFF;}
	.st1{fill:#1D1D1B;}
	.st2{clip-path:url(#SVGID_00000018949915176685500030000009267162910881398436_);}
	.st3{fill:#D63D16;}
	.st4{clip-path:url(#SVGID_00000016766770963083117480000012267350462900487852_);}
	.st5{fill:none;}
	.st6{clip-path:url(#SVGID_00000173848501857652429180000018434915933447132583_);}
	.st7{clip-path:url(#SVGID_00000107549852940809903060000009026013982117478785_);}
	.st8{fill-rule:evenodd;clip-rule:evenodd;fill:#1D1D1B;}
	.st9{fill:#009FE3;}
	.st10{fill:#EBF7FE;}
	.st11{fill:#B8A40C;}
	.st12{fill:none;stroke:#12100B;stroke-width:2.87;stroke-miterlimit:10;}
	.st13{fill:none;stroke:#12100B;stroke-width:3.1;stroke-miterlimit:10;}
	.st14{fill:#12100B;}
</style>
<g id="Layer_1_00000145033893802451787860000004183850272779142069_">
	<rect x="2.4" y="0.3" class="st0" width="247.9" height="106.5"/>
	<g>
		<g>
			<path class="st1" d="M118.4,47.6c0,10.8-5.4,16.2-15.2,16.2s-15.4-4.4-15.4-14.4V39.2c0-4.2-0.3-8.5-0.8-12.7
				c1.4,0.2,2.8,0.3,4.2,0.3c1.1,0,2.2-0.1,3.3-0.3c-0.5,5-0.7,11.7-0.7,18.6c0,10,1.8,15.6,11.1,15.6c10,0,10.2-9.9,10.2-18.1
				c0-7.4-0.1-12.7-0.4-16.1c0.8,0.2,1.6,0.3,2.4,0.3c0.7,0,1.4-0.1,2.1-0.3C118.9,30.4,118.5,39.2,118.4,47.6"/>
			<path class="st1" d="M152.7,44.3c-0.1,5.6,0,14.2,0,19.2c-0.4-0.1-0.8-0.2-1.2-0.2c-0.4,0-0.8,0.1-1.2,0.2
				c-7.6-9-16.2-18.3-24.8-27.3c-0.1,2.9-0.2,6.7-0.2,11.4c0,6.5,0.2,13.5,0.4,15.5c-1.4-0.4-2.9-0.4-4.3,0c0.4-2,1.1-15.5,1.1-24.3
				c0-5.7-0.1-9.8-0.2-12.2c0.4,0.1,0.9,0.1,1.3,0.1c0.5,0,0.9,0,1.4-0.1c8.1,8.8,17.6,19.2,24.7,26.6c0-8.9,0-21.1-0.4-26.3
				c0.7,0.2,1.4,0.2,2.1,0.3c0.7,0,1.3-0.1,2-0.3C153.1,31.9,152.7,39.8,152.7,44.3"/>
			<path class="st1" d="M166,63.9c-4.2-0.2-8.2-1.5-11.6-3.9c0.9-0.6,1.6-1.4,2.3-2.3c0.5-0.8,0.9-1.7,1.2-2.6
				c0.9,2.8,3.8,5.5,8.9,5.5s8.7-3.8,8.7-7.4c0-8.8-19.3-4.8-19.3-16.9c0-6.6,5.8-10.2,13.4-10.2c3.5,0,7,1,9.9,2.9
				c-0.8,0.5-1.4,1.2-1.9,2c-0.5,0.8-0.8,1.6-1.1,2.5c-1.1-3-4.1-4.9-7.3-4.7c-4.1,0-7.1,2.6-7.1,5.8c0,8.8,20.1,5.3,20,16.7
				C182,60.3,175.5,64,166,63.9"/>
			<path class="st1" d="M218.9,63.1c-0.7-0.1-1.4-0.2-2.2-0.3c-0.7,0-1.5,0.1-2.2,0.3c-2.5-9.2-5.4-18.4-8.6-27.9h-0.1
				c-1.9,6-6.6,19.3-9.2,27.9c-1.4-0.3-2.9-0.3-4.4,0c-1.5-5.7-3.6-14-6.4-22.9c-0.8-2.8-3.9-11.4-4.8-13.3c1.3,0.2,2.7,0.3,4,0.3
				c1.1,0,2.2-0.1,3.3-0.3c2.3,9.8,4.7,18.5,7.7,28.8h0.1c2.4-7.3,7.8-23.7,9.1-28.8c1.4,0.3,2.8,0.3,4.1,0c1.2,5.2,7,22.6,8.8,28.8
				h0.1c2.1-6.8,7.3-24.5,8.2-28.8c0.7,0.2,1.3,0.3,2,0.3c0.7,0,1.3-0.1,2-0.3C229,31.4,221.3,54.5,218.9,63.1"/>
		</g>
		<g>
			<path class="st1" d="M123.2,73.2c-0.3-0.2-0.7-0.4-1-0.5c-0.3-0.1-0.6-0.3-0.9-0.4c-0.3-0.1-0.5-0.3-0.7-0.5
				c-0.2-0.2-0.2-0.5-0.2-0.8c0-0.2,0-0.4,0.1-0.6c0.1-0.2,0.2-0.3,0.3-0.4c0.1-0.1,0.3-0.2,0.4-0.3c0.3-0.1,0.7-0.1,1,0
				c0.1,0.1,0.3,0.1,0.4,0.2c0.1,0.1,0.2,0.2,0.2,0.3c0.1,0.1,0.1,0.3,0.2,0.4l0.1,0.2h0.6v-0.2c0-0.2,0.1-0.4,0.1-0.6
				c0-0.1,0.1-0.3,0.2-0.4l0.1-0.2l-0.2-0.2c-0.3-0.2-0.6-0.4-0.9-0.5c-0.8-0.3-1.6-0.3-2.4,0c-0.4,0.1-0.7,0.3-1,0.6
				c-0.3,0.3-0.5,0.6-0.6,0.9c-0.1,0.4-0.2,0.7-0.2,1.1c0,0.5,0.1,1,0.3,1.4c0.2,0.3,0.5,0.6,0.8,0.8c0.3,0.2,0.6,0.4,1,0.5
				c0.3,0.1,0.6,0.3,0.9,0.4c0.3,0.1,0.5,0.3,0.7,0.5c0.2,0.2,0.2,0.5,0.2,0.8c0,0.2,0,0.4-0.1,0.7c-0.1,0.2-0.2,0.4-0.3,0.5
				c-0.1,0.1-0.3,0.3-0.5,0.3c-0.4,0.2-0.9,0.2-1.3,0c-0.2-0.1-0.4-0.2-0.5-0.3c-0.1-0.1-0.3-0.2-0.4-0.4c-0.1-0.1-0.2-0.3-0.2-0.4
				l-0.1-0.2h-0.6v0.3c0,0.2,0,0.4-0.1,0.6c0,0.2-0.1,0.3-0.1,0.5l-0.1,0.2l0.2,0.2c0.3,0.2,0.6,0.4,0.9,0.5
				c0.5,0.2,0.9,0.3,1.4,0.2c0.5,0,1-0.1,1.4-0.2c0.4-0.2,0.8-0.4,1.1-0.7c0.3-0.3,0.5-0.6,0.7-1c0.2-0.4,0.2-0.8,0.2-1.3
				c0-0.5-0.1-0.9-0.4-1.3C123.8,73.7,123.5,73.4,123.2,73.2z"/>
			<path class="st1" d="M137.8,68.7l-0.2-0.1l-0.1,0.2c-0.2,0.4-0.4,0.8-0.6,1.2s-0.4,0.8-0.6,1.2s-0.4,0.8-0.6,1.2
				c-0.1,0.2-0.2,0.4-0.3,0.6c-0.4-0.6-0.7-1.2-1-1.8s-0.8-1.5-1.2-2.3l-0.1-0.2l-0.6,0.1c-0.2,0-0.4,0-0.6,0l-1-0.1l0.3,0.6
				c0.1,0.1,0.2,0.3,0.4,0.6l2.4,4.1c0.1,0.2,0.3,0.4,0.3,0.6c0,0.7,0,1.3,0,2s0,1.2-0.1,1.6v0.4h0.4c0.4,0,0.8,0,1.2,0h0.4v-0.4
				c0-0.2,0-0.4-0.1-0.7s0-0.6,0-1s0-0.7,0-1.1v-1c0.1-0.2,0.3-0.5,0.4-0.8s0.4-0.7,0.6-1.2s0.5-0.9,0.9-1.4s0.7-1.1,1.1-1.8
				l0.4-0.6l-0.7,0.2C138.5,68.8,138.1,68.8,137.8,68.7z"/>
			<path class="st1" d="M154,70L154,70c-0.4-0.4-0.9-0.8-1.4-1c-1-0.3-2-0.4-3-0.3c-0.6,0-1.3,0-1.9,0h-1h-0.3l0.1,2.1
				c0,0.6,0,1.1,0,1.7v2.3c0,0.6,0,1.2,0,1.7s0,1.1-0.1,1.7v0.3h0.4h0.8h0.9h0.9c0.9,0.1,1.7,0,2.6-0.2c0.6-0.2,1.2-0.5,1.6-0.8
				c0.5-0.4,0.9-1,1.2-1.6c0.3-0.7,0.5-1.6,0.5-2.4c0-0.7-0.1-1.3-0.2-1.9C154.7,70.9,154.4,70.4,154,70z M152.9,75.4
				c-0.2,0.5-0.5,0.9-0.8,1.2c-0.3,0.3-0.7,0.5-1.1,0.6c-0.7,0.2-1.5,0.2-2.3,0.1h-0.5c0-0.8-0.1-1.7-0.1-2.6v-2.3
				c0-0.5,0-0.9,0-1.4s0-0.7,0-1.1l0.6-0.1c0.8-0.1,1.6,0,2.4,0.1c0.4,0.1,0.7,0.3,1,0.5c0.3,0.3,0.5,0.6,0.7,1
				c0.2,0.6,0.3,1.2,0.3,1.8C153.2,74,153.1,74.7,152.9,75.4z"/>
			<path class="st1" d="M170.4,68.7c-0.1,0-0.2,0-0.4-0.1l-0.4-0.1V69c0,0.8,0.1,1.6,0.1,2.5s0,1.8,0,2.7v1l-0.8-0.9l-1.7-1.8
				l-1.8-2l-1.8-2H163v0.3c0,0.3,0,0.8,0,1.3v2.2c0,0.3,0,0.6,0,1v1.1c0,0.4,0,0.8-0.1,1.2l-0.1,1.1c0,0.3,0,0.6-0.1,0.8
				c0,0.2,0,0.4,0,0.5l-0.1,0.4l0.4-0.1c0.3,0,0.6,0,0.9,0l0.4,0.1V78c0-0.1,0-0.2,0-0.4l-0.1-1.6c0-0.3,0-0.6,0-0.9v-0.8
				c0-0.3,0-0.5,0-0.7c0-0.7,0-1.3,0-1.7c0-0.1,0-0.2,0-0.2l2.8,3.1c1.1,1.2,2.2,2.4,3.1,3.6l0.1,0.1h0.6v-1.5v-1.9
				c0-0.3,0-0.6,0-0.9v-0.8c0-0.2,0-0.6,0-1s0-0.8,0.1-1.3s0-0.8,0.1-1.2s0-0.7,0.1-0.9v-0.4l-0.4,0.1
				C170.6,68.7,170.5,68.7,170.4,68.7z"/>
			<path class="st1" d="M184.6,77.4l0.1-0.5l-0.5,0.1c-0.2,0.1-0.5,0.1-0.7,0.1h-0.9h-1H181c0-0.1,0-0.3,0-0.4s0-0.7,0-1.2v-1.5h1.2
				h0.9c0.3,0,0.5,0,0.8,0.1h0.4l-0.1-0.4c0-0.1,0-0.2,0-0.3c0-0.1,0-0.2,0-0.4l0.1-0.4h-0.4h-0.6h-0.7h-0.8H181V72c0-0.3,0-0.7,0-1
				s0-0.6,0-0.9s0-0.3,0-0.5h0.8l0.8,0.1h0.7h0.8h0.4l-0.1-0.4c0-0.1,0-0.2,0-0.3c0-0.1,0-0.2,0-0.3l0.1-0.4l-1.5,0.1
				c-0.8,0-1.5,0-2.3,0h-1.2h-0.3v0.3c0,0.6,0,1.1,0.1,1.7s0,1.1,0,1.7v2.3c0,0.6,0,1.2,0,1.7s0,1.1-0.1,1.7v0.3h0.3h1.1h2.3
				c0.4,0,0.8,0,1.1,0h0.4l-0.1-0.4C184.5,77.6,184.5,77.5,184.6,77.4c-0.1-0.1-0.1-0.2-0.1-0.2C184.5,77.3,184.6,77.4,184.6,77.4z"
				/>
			<path class="st1" d="M198.9,68.7c-0.3,0.1-0.6,0.1-0.9,0l-0.2-0.1l-0.1,0.2c-0.2,0.4-0.4,0.8-0.6,1.2s-0.4,0.8-0.6,1.2
				s-0.4,0.8-0.6,1.2l-0.3,0.6c-0.4-0.6-0.7-1.2-1-1.8s-0.8-1.5-1.2-2.3l-0.1-0.2l-0.6,0.1c-0.2,0-0.4,0-0.6,0l-1-0.1l0.3,0.6
				l0.4,0.6l2.4,4.1l0.3,0.6c0,0.7,0,1.3,0,2s0,1.2-0.1,1.6v0.4h0.4c0.4,0,0.8,0,1.2,0h0.4v-0.4c0-0.2,0-0.4,0-0.7s0-0.6,0-1
				s0-0.7,0-1.1s0-0.7,0-1s0.3-0.5,0.4-0.8l0.7-1.2c0.2-0.4,0.5-0.9,0.9-1.4l1.1-1.8l0.4-0.6L198.9,68.7z"/>
		</g>
	</g>
</g>
<g id="Layer_2_00000059294240028173403230000007155877940519124626_">
	<g>
		<path class="st0" d="M11.3,68.7V10.4H69v58.4c0,2.5-1.5,4.7-3.7,5.8L40.2,86.5L15,74.5C12.8,73.4,11.3,71.2,11.3,68.7L11.3,68.7z"
			/>
		<g>
			<defs>
				<path id="SVGID_1_" d="M15,73.3c-1.4-0.7-2.4-2.1-2.4-3.7V26.4h55.1v43.3c0,1.6-1,3-2.4,3.7L40.2,85.2L15,73.3z"/>
			</defs>
			<clipPath id="SVGID_00000073693269726142965110000001277651331067334048_">
				<use xlink:href="#SVGID_1_"  style="overflow:visible;"/>
			</clipPath>
			<g style="clip-path:url(#SVGID_00000073693269726142965110000001277651331067334048_);">
				<polygon class="st3" points="29.5,26.4 29.5,44.5 11.3,44.5 11.3,63.2 29.5,63.2 29.5,86.5 40.2,86.5 50.8,86.5 50.8,63.2 
					69,63.2 69,44.5 50.8,44.5 50.8,26.4 29.5,26.4 				"/>
			</g>
		</g>
		<polygon class="st1" points="69,26.4 11.3,26.4 11.3,10.4 69,10.4 69,26.4 		"/>
		<g>
			<g>
				<defs>
					<polygon id="SVGID_00000056422749486875167100000003218879220004557463_" points="27.9,46.9 27.9,46.9 27.9,46.9 					"/>
				</defs>
				<clipPath id="SVGID_00000008147151958664465080000004724628137652771486_">
					<use xlink:href="#SVGID_00000056422749486875167100000003218879220004557463_"  style="overflow:visible;"/>
				</clipPath>
				<g style="clip-path:url(#SVGID_00000008147151958664465080000004724628137652771486_);">
					
						<image style="overflow:visible;enable-background:new    ;" width="8" height="4" xlink:href="A5951522FAA9417F.png"  transform="matrix(0.37 0 0 -0.37 27.0988 47.95)">
					</image>
				</g>
			</g>
			<g>
				<path class="st5" d="M27.9,46.9"/>
				<g>
					
						<image style="overflow:visible;enable-background:new    ;" width="8" height="4" xlink:href="A5951522FAA9417D.png"  transform="matrix(0.37 0 0 -0.37 27.0988 47.94)">
					</image>
				</g>
			</g>
			<g>
				<path class="st5" d="M47.8,47.9"/>
				<g>
					
						<image style="overflow:visible;enable-background:new    ;" width="8" height="4" xlink:href="A5951522FAA94183.png"  transform="matrix(0.37 0 0 -0.37 46.9188 48.81)">
					</image>
				</g>
			</g>
			<g>
				<path class="st5" d="M27.8,47"/>
				<g>
					
						<image style="overflow:visible;enable-background:new    ;" width="8" height="4" xlink:href="A5951522FAA94185.png"  transform="matrix(0.37 0 0 -0.37 27.0588 47.99)">
					</image>
				</g>
			</g>
			<g>
				<defs>
					<path id="SVGID_00000023980651805555676090000003503748373683556516_" d="M41,49.4L41,49.4l0.3-0.4l0.1,0.2
						c0.3,0.6,1,1,1.7,0.9c0.3,0,0.5,0,0.8-0.1c0.9-0.2,1.8-0.4,2.8-0.6c1.2-0.4,2.4-0.6,3.6-0.7c0.7,0,2.2,0.3,2.2,1.3
						c0,0.5-0.2,1-0.7,1.3l0,0c-0.9,0.4-1.8,0.5-2.8,0.5c-0.8,0.1-1.5-0.1-2.2-0.4c-0.1-0.1-0.2-0.2-0.4-0.3
						c-0.3-0.1-0.6-0.2-0.8-0.2c-0.7,0-1.5,0.2-2.2,0.4c-0.6,0.2-1.3,0.3-2,0.4c-0.1,0-0.1,0-0.2-0.1C41,51,40.9,50.1,41,49.4
						L41,49.4z M42.7,47.4c0.3-0.3,0.7-0.6,1.2-0.6c0.2,0,0.3,0,0.5,0.1c0.3,0.2,0.5,0.4,0.8,0.7c0.3,0.3,0.6,0.6,0.9,0.8l0.1,0.1
						v0.1c0,0.1,0,0.2-0.9,0.5c-0.4,0.1-0.9,0.2-1.3,0.2c-1,0-1.5-0.4-1.5-1.1C42.4,47.8,42.5,47.6,42.7,47.4z M30.1,62.4L30.1,62.4
						L30.1,62.4L30.1,62.4l0.1-0.1l0.1-0.2l0.1-0.1l0.2,0.1L30.4,62v-0.1l0.2,0.1l-0.2-0.1v-0.1h0.2l-0.2-0.1l0.1-0.4v-0.1
						c0-0.1,0.1-0.2,0.1-0.3l0.1-0.1l0.1-0.1l0,0l0.1-0.1l0,0h0h0.2c0.2,0,0.4,0,0.5,0.1c0.3,0.1,0.6,0.2,0.9,0.2
						c0.2,0,0.5,0,0.7-0.1c-0.1-0.1-0.1-0.3,0-0.4l0,0l0.2-0.1l0.7-0.2c0.2-0.1,0.4-0.2,0.6-0.2H35c-0.1-0.1-0.1-0.1-0.1-0.2v-0.2
						H35c0.1-0.1,0.2-0.1,0.3-0.1l0,0l-0.1-0.1c0-0.2,0.2-0.3,0.7-0.6c0.2-0.1,0.4-0.2,0.6-0.3c-0.2-0.1-0.3-0.3-0.3-0.5
						c0-0.1,0-0.3,0.2-0.3h0.1c0.4,0,0.7-0.2,1-0.5l0,0h0l0.5-0.2c0.7-0.2,2-0.6,2.5-0.8l0.2-0.1v0.4h-0.1h0.1v0.5
						c0,0.2,0.1,0.3,0.2,0.4l0.1,0.1c0.2,0.2,0.5,0.3,0.7,0.3H42h0.5c0.3,0,0.7,0,1,0c0.3,0,0.5,0.2,0.6,0.5c0,0.4-0.2,0.8-0.7,0.9
						c-0.4,0.1-0.8,0.1-1.2,0.1l0,0c-0.5,0-0.9-0.2-1.2-0.6L41,58.5c-0.1-0.1-0.2-0.1-0.2-0.2c-0.1-0.1-0.2-0.1-0.3-0.1
						c-0.2,0-0.3-0.1-0.4-0.2L40,57.9l-0.1-0.1l0,0c-0.1-0.2-0.2-0.3-0.3-0.3c-0.1,0-0.3,0-0.4,0.1l-0.1,0.1L39,57.6
						c-0.4-0.1-0.8,0-1,0.3c-0.1,0.1-0.1,0.2-0.2,0.3h0.3h0.1l0,0h0.1l0,0h0.1l0.1,0l0,0l0.1,0l0,0l0.1,0.1l0,0l0,0l0,0l0,0v0.1l0,0
						c0,0.1,0,0.2,0,0.3c0,0.1-0.1,0.3-0.3,0.3h-0.1c-0.1,0-0.2-0.1-0.3-0.1c-0.3,0-0.6,0.2-0.7,0.5v0.2c0.3-0.1,0.7-0.1,1,0.1
						c0.2,0.1,0.3,0.4,0.3,0.6v0.1h-0.1c-0.5,0.1-0.8,0.5-0.9,1c0.4-0.2,0.9-0.3,1.3-0.3h0.1v0.1c0.2,0.2,0.5,0.3,0.8,0.2
						c0.2-0.2,0.4-0.4,0.6-0.6c0.1-0.2,0.3-0.3,0.4-0.4l0,0c0.1,0,0.1,0,0.2,0c0.1,0,0.2,0.1,0.2,0.2c0.1,0.1,0.1,0.3,0,0.5
						c-0.1,0.2-0.2,0.4-0.4,0.5c0.1,0,0.1,0,0.2,0c0.2,0,0.4,0,0.6-0.1h0.1l0.1-0.1l0.2-0.1H42l0.1,0.1c0,0.1,0,0.2,0,0.2l-0.1,0.2
						c0.3,0.1,0.6-0.1,0.7-0.3l0.1-0.2l0.2,0.2l0.2,0.2l0.1,0.2c0-0.3,0.2-0.5,0.5-0.7l0.3-0.2v0.3c0,0.2,0.1,0.3,0.2,0.5
						c0-0.1,0.1-0.2,0.2-0.3c0,0,0.1-0.2,0.3-0.2s0.2,0.1,0.3,0.3c0,0.1,0.1,0.2,0.1,0.2c0.1-0.3,0.3-0.5,0.5-0.7l0.1-0.1h0.1
						l0.2,0.1c0.2,0.1,0.5,0.1,0.8,0.2c-0.2-0.3-0.3-0.6-0.3-1v-0.1V60c0.1-0.2,0.2-0.4,0.4-0.5h0.1c0.1-0.1,0.2-0.1,0.2-0.2
						c0.2-0.1,0.2-0.3,0.2-0.5c-0.1-0.2-0.3-0.4-0.5-0.5l-0.3-0.3c-0.3-0.4-0.3-0.8-0.1-1.2l0.1-0.2l0.1-0.1l0.1,0.1
						c0.5,0.3,0.8,0.6,1.3,0.9c0.4,0.3,0.8,0.4,1.2,0.4c0.1,0,0.3,0,0.4,0c0.2,0,0.3,0,0.5,0c0.9,0,1.8,0.2,1.8,1
						c-0.1,0.5-0.5,0.9-1,1h-0.1l0,0l0,0c-0.2-0.1-0.3-0.3-0.3-0.5c-0.1-0.2-0.2-0.3-0.3-0.3l0,0c-0.1,0-0.3,0.1-0.5,0.2l-0.1,0.1
						h-0.1C49,59.2,48.3,59.4,48,60c0,0,0,0.1,0,0.1l0,0c0.1,0,0.2,0,0.3,0c0.4,0,0.7,0.1,1,0.4l0,0v0.1c0,0.1,0,0.2-0.1,0.2
						c-0.1,0.1-0.2,0.2-0.2,0.3v0.1h-0.1c-0.5,0.2-0.9,0.6-0.9,1.2c0.5-0.3,1-0.4,1.5-0.4h0.1l0,0c0.1,0.1,0.2,0.3,0.2,0.5v0.1h-0.1
						c-0.3,0.2-0.7,0.3-1,0.3c0.3,0.2,0.6,0.3,1,0.3c0.3,0,0.5-0.1,0.8-0.2l0.1-0.1h0.1c0.3,0.1,0.6,0,0.8-0.3
						c0.1-0.2,0.1-0.4,0-0.6c-0.1-0.1-0.1-0.2,0-0.3c0-0.1,0.1-0.1,0.2-0.2h0.1c0.2,0,0.3,0.1,0.5,0.2c0.2,0.2,0.3,0.6,0.2,0.9
						c0.2-0.1,0.4-0.2,0.5-0.4l0,0l0.1-0.1C53,62,53,61.9,53,61.8v-0.2h0.2c0.5,0,0.9-0.1,1.3-0.4c-0.1,0-0.2-0.1-0.2-0.1l0,0
						c-0.1-0.1-0.2-0.2-0.1-0.4l0,0c0.1-0.1,0.3-0.2,0.5-0.3c0.1,0,0.2-0.1,0.2-0.1c-0.1-0.1-0.1-0.1-0.1-0.2l0,0l0,0
						c0.1-0.1,0.2-0.2,0.3-0.3l0.1-0.1c-0.1,0-0.2-0.1-0.2-0.2v-0.1l0,0l0.2-0.2c0.2-0.1,0.4-0.3,0.5-0.5l0,0c-0.2,0-0.4,0-0.5-0.2
						L55,58.5l0.1-0.1c0.1-0.1,0.2-0.3,0.3-0.3c-0.1,0-0.1-0.1-0.2-0.1l0,0l0,0c-0.1-0.2,0-0.3,0.1-0.5c0.1-0.1,0.1-0.3,0.1-0.4l0,0
						h-0.1c-0.1,0-0.2,0-0.3-0.1c-0.1-0.1,0-0.2,0.1-0.4c0-0.1,0.1-0.2,0.1-0.2l-0.5,0.2c-0.4,0.2-0.8,0.3-1.2,0.3h-0.3l-0.1-0.1
						l-0.1-0.1c-0.1-0.3-0.4-0.5-0.7-0.5h-0.1c-0.4,0.3-0.9,0.5-1.3,0.5c-0.1,0-0.2,0-0.3-0.1h0l0,0l-0.1,0c-0.3-0.3-0.4-0.6-0.5-1
						c0,0,0-0.1,0-0.2c0-0.2-0.1-0.5-0.2-0.7c-0.2-0.2-0.4-0.4-0.6-0.5c-0.5-0.3-0.8-0.8-1-1.3l0,0v-0.1l-0.1-0.3l1.6,0.2H50
						l1.1-0.1l0.7-0.2l0.6-0.3l0.4-0.3l0.3-0.4l0,0v0l0,0l0,0l0.1-0.2l0,0v0v-0.1V51l0.1-0.5v-0.5c0-0.1,0-0.2,0.1-0.3l0,0l0.1-0.1
						l0.2-0.1l0.1-0.1l0.1-0.1l0,0l0.1-0.1l0,0l0.1-0.1l0,0l0,0l0.2,0.1L54,49.3l0,0l0.2,0.1L54,49.3l0,0l0.2,0.1l0.2-0.3l0.1-0.1
						l0,0l0,0v-0.6c0-0.1,0-0.2,0-0.3l0,0v-0.3l0,0v-0.1l0,0v-0.1l0,0h0C54.2,47.8,54,48,53.7,48c-0.4,0-0.6-0.3-0.8-1.1
						c-0.1,0.2-0.2,0.3-0.4,0.3h-0.1c-0.3-0.2-0.5-0.4-0.7-0.7l-0.2-0.4v0.2v0.3l0,0l0,0l0,0l0,0l0,0l0,0H51l0,0l0,0l-0.4-0.2h0
						l0.1-0.2l-0.1,0.1l-0.3-0.2l0.1-0.2l-0.1,0.2l0,0c0,0.2,0,0.3-0.1,0.4l0,0h-0.1h-0.3c-0.3,0-0.6-0.1-0.9-0.2v0
						c0,0.1,0,0.2-0.1,0.2l0,0c-0.1,0.1-0.2,0.1-0.3,0.1c0.1,0.2,0.1,0.4,0.1,0.6l0,0l-0.1,0.1l0,0l0,0l0,0l0,0l0,0l0,0l-0.1-0.1
						l0.1,0.1h0l-0.2,0.1H48h-0.3h-0.2l0,0h-0.1L47,48.1l0,0l0,0l0,0l0,0l0,0L46.9,48l0,0l0,0l0,0l0,0v-0.1c0-0.1,0-0.2,0-0.2
						c0.1-0.2,0.3-0.2,0.5-0.2l0,0c-0.2-0.2-0.2-0.5-0.1-0.7c0.1-0.2,0.4-0.4,0.8-0.6s1.1-0.6,1.2-1L49,45.2
						c-0.2,0.1-0.4,0.1-0.7,0.1c-0.2,0-0.3-0.1-0.5-0.2c-0.1-0.1-0.1-0.2-0.1-0.3c-0.5,0.4-1.2,0.6-1.8,0.6l0,0
						c-0.3-0.1-0.6-0.3-0.8-0.6c-0.3-0.3-0.7-0.6-1.1-0.8v0.6h-0.2c-0.3,0-0.6,0-0.9,0c0.4,0,0.7,0.3,0.9,0.7
						c0.2,0.5-0.3,0.8-0.9,1.1c-0.4,0.2-0.8,0.5-1.1,0.8l-0.4-0.1L41.4,47c-0.2-0.1-0.3-0.3-0.4-0.4c-0.1-0.1-0.2-0.2-0.2-0.2h-0.3
						l0.3-0.3c0.2-0.2,0.3-0.4,0.3-0.7c0-0.2-0.1-0.4-0.2-0.6l-0.1-0.2c-0.2,0.1-0.4,0.1-0.6,0.1c-0.4,0-0.6-0.1-0.7-0.3
						c0-0.1,0-0.1,0-0.2h-0.1h-0.1c-0.6-0.1-1.2,0.1-1.7,0.3l-0.2,0.1l-0.1-0.1c-0.4-0.5-0.9-0.8-1.5-0.9h0l0,0l-0.1,0
						c-0.1,0.3-0.4,0.5-0.8,0.4v0.1c0,0.1,0,0.1,0,0.2v0.3l-0.2-0.1c-0.2,0-0.3-0.1-0.5-0.1c-0.2,0-0.3,0-0.5,0.1h-0.3v0.1l0,0
						c-0.1,0.3-0.4,0.6-0.7,0.7l0,0c0.1,0.1,0.2,0.2,0.2,0.3c0.1,0.2-0.1,0.4-0.5,0.8l0,0c0.1,0,0.1,0,0.2,0.1
						c0.3,0.1,0.2,0.3,0.2,0.3c-0.1,0.2-0.2,0.3-0.3,0.4c-0.1,0.1-0.2,0.3-0.3,0.4c0.1,0,0.2,0,0.2,0.1l0.2,0.1L32.6,48l-0.1,0.1
						c-0.2,0.4-0.4,0.8-0.5,1.2h0.2v0.2c0,0.3-0.1,0.5-0.2,0.7l0,0l0,0l-0.2,0.1c-0.3,0-0.6-0.5-0.7-0.8c-0.2-0.4-0.4-0.9-0.5-1.4
						c0-1.5,0.2-1.7,0.3-1.9l0.1-0.1c0-0.2-0.1-0.2-0.3-0.3c-0.2,0-0.3-0.1-0.4-0.3c-0.2-0.4-0.6-0.6-1.1-0.6c-0.1,0-0.2,0-0.3,0
						c0.2,0.1,0.3,0.2,0.4,0.4c0.1,0.1,0.1,0.3,0,0.4l0,0v0.3h-0.3H29c-0.1,0.1-0.3,0.1-0.4,0c-0.3-0.2-0.6-0.3-0.9-0.3
						c-0.2,0-0.3,0-0.5,0.1V46l0.1-0.2l0.1,0.1h0l0,0l0,0h0l0.1,0.1l0,0l0,0h0l0,0l0,0l0,0v0l0,0v0l0,0l0,0v0.1v0.1v0.1v0.2l0,0l0,0
						l0,0l0,0l0,0h-0.1l0,0h-0.3h-0.1l0,0l0.1,0.5l0.1-0.2l-0.1,0.1l0,0l0,0L27.3,47l0.1-0.1L27.3,47l0,0l0.1-0.1L27.2,47l0,0
						l0.1-0.1L27.2,47l0,0v0.2v0c-0.1,0.3,0.1,0.6,0.4,0.8h0.1c0.2,0,0.3,0.1,0.3,0.3v0.1l0,0l0,0h0.2h0.3h0.1c0.1,0,0.2,0,0.2,0.1
						l0,0l0,0v0.1l0,0l0,0v0.2l0,0l0,0l0,0l0,0l-0.1,0.1l0,0h-0.1h-0.1h-0.2v-0.2v0.2v-0.2v0.2l0,0c0,0.1,0,0.2,0.1,0.2
						c0.1,0.2,0.3,0.2,0.5,0.2H29c0.1,0,0.2,0.1,0.3,0.2c0.1,0.2,0,0.3-0.1,0.5l0,0l-0.5,0.3c-0.3,0.1-0.5,0.3-0.7,0.5
						c0.3,0,0.4,0.2,0.4,0.3c0,0.2-0.1,0.4-0.2,0.5c0.1,0,0.2,0.1,0.3,0.2c0.2,0.2-0.1,0.5-0.2,0.6c-0.1,0.1-0.2,0.2-0.2,0.3
						c0.1,0,0.2,0,0.2,0c0.3,0,0.6,0.2,0.7,0.5l0,0c0,0.2-0.1,0.4-0.2,0.5H29c0.1,0,0.3,0,0.3,0.2c0.1,0.2,0,0.3-0.2,0.5L29,54.3
						c0.2,0,0.3,0,0.5,0h0.1v0.1c0.1,0.1,0.1,0.3,0,0.4c-0.1,0.2-0.3,0.3-0.5,0.4c0.2,0.1,0.4,0.1,0.6,0.1c0.4,0,0.7-0.1,1.1-0.2
						l0.2-0.1v0.2c0.1,0.5,0.7,0.7,1,0.7c0.4,0.1,0.3,0.1,0.3,0.2v0.1l-0.1,0c-0.3,0.2-0.4,0.6-0.4,1l0,0c0.2,0.7,0,1.4-0.6,1.8
						c-0.3,0.3-0.7,0.5-1.2,0.5c-0.6,0-1.3-0.1-1.5-0.8c-0.1-0.4-0.4-0.4-0.7-0.2l-0.1,0.1h-0.1c-0.1,0-0.2-0.1-0.3-0.1
						c-0.4,0-0.7,0.2-0.9,0.5c0.4,0,0.7,0.2,0.9,0.5c0.1,0.3,0,0.5-0.2,0.7H27h0c-0.4,0-0.8,0.3-0.9,0.7c0.2-0.1,0.4-0.1,0.7-0.1
						c0.7,0,0.8,0.3,0.8,0.5c0,0.4-0.4,0.8-1,1c0.2,0.1,0.4,0.2,0.6,0.2c0.3,0,0.5-0.1,0.7-0.2l0.2-0.1c0.1,0,0.3,0,0.4,0l0,0
						c0.2,0.1,0.3,0,0.4-0.3c0-0.1,0.1-0.2,0.2-0.3c0.1-0.1,0.2-0.1,0.2-0.1c0.1,0,0.1,0,0.2,0c0.1,0,0.1,0.1,0.2,0.2v0.2v0.1v0.2
						l0,0v0.2l0,0v0.2v-0.2l0,0l0,0.2v-0.2l0.1,0.2v-0.2L30.1,62.4l0,0.2L30,62.4L30.1,62.4L30.1,62.4z"/>
				</defs>
				<clipPath id="SVGID_00000053504752145644275440000002272596744441993347_">
					<use xlink:href="#SVGID_00000023980651805555676090000003503748373683556516_"  style="overflow:visible;"/>
				</clipPath>
				<g style="clip-path:url(#SVGID_00000053504752145644275440000002272596744441993347_);">
					
						<image style="overflow:visible;enable-background:new    ;" width="88" height="58" xlink:href="A5951522FAA94187.png"  transform="matrix(0.37 0 0 -0.37 25.1288 64.1301)">
					</image>
				</g>
			</g>
			<g>
				<path class="st5" d="M47.9,47.8"/>
				<g>
					
						<image style="overflow:visible;enable-background:new    ;" width="8" height="4" xlink:href="A5951522FAA94184.png"  transform="matrix(0.37 0 0 -0.37 46.9688 48.79)">
					</image>
				</g>
			</g>
			<g>
				<path class="st5" d="M46.9,47.7"/>
				<g>
					
						<image style="overflow:visible;enable-background:new    ;" width="8" height="4" xlink:href="A5951522FAA9418C.png"  transform="matrix(0.37 0 0 -0.37 46.1088 48.71)">
					</image>
				</g>
			</g>
			<g>
				<path class="st5" d="M49,52.9"/>
				<g>
					
						<image style="overflow:visible;enable-background:new    ;" width="8" height="4" xlink:href="A5951522FAA9418D.png"  transform="matrix(0.37 0 0 -0.37 47.9288 53.99)">
					</image>
				</g>
			</g>
			<g>
				<path class="st5" d="M51,46.5"/>
				<g>
					
						<image style="overflow:visible;enable-background:new    ;" width="8" height="4" xlink:href="A5951522FAA9418F.png"  transform="matrix(0.37 0 0 -0.37 50.0888 47.39)">
					</image>
				</g>
			</g>
			<g>
				<defs>
					<polygon id="SVGID_00000127046100797013485630000006349683112966172840_" points="41.8,61.7 41.8,61.7 41.8,61.7 41.8,61.7 
						41.8,61.7 					"/>
				</defs>
				<clipPath id="SVGID_00000140705645639660918520000001676552804999746699_">
					<use xlink:href="#SVGID_00000127046100797013485630000006349683112966172840_"  style="overflow:visible;"/>
				</clipPath>
				<g style="clip-path:url(#SVGID_00000140705645639660918520000001676552804999746699_);">
					
						<image style="overflow:visible;enable-background:new    ;" width="8" height="4" xlink:href="EE8C0E0E3A76776C.png"  transform="matrix(0.37 0 0 -0.37 40.9088 62.56)">
					</image>
				</g>
			</g>
			<g>
				<path class="st5" d="M28.4,48.9"/>
				<g>
					
						<image style="overflow:visible;enable-background:new    ;" width="8" height="4" xlink:href="EE8C0E0E3A76776B.png"  transform="matrix(0.37 0 0 -0.37 27.3488 49.69)">
					</image>
				</g>
			</g>
			<g>
				<path class="st5" d="M27.2,46"/>
				<g>
					
						<image style="overflow:visible;enable-background:new    ;" width="8" height="4" xlink:href="EE8C0E0E3A767764.png"  transform="matrix(0.37 0 0 -0.37 26.3888 46.74)">
					</image>
				</g>
			</g>
			<g>
				<path class="st5" d="M28.1,48.8"/>
				<g>
					
						<image style="overflow:visible;enable-background:new    ;" width="8" height="4" xlink:href="EE8C0E0E3A767767.png"  transform="matrix(0.37 0 0 -0.37 27.1788 49.68)">
					</image>
				</g>
			</g>
			<path class="st8" d="M54.9,59.3c-0.2,0.1-0.4,0.2-0.7,0.2c-0.3,0-0.7-0.1-0.9,0c0.1,0.4,1.1,0.3,1.7,0.3
				c-0.5,0.4-1.1,0.5-1.8,0.4c0,0,0,0.1,0.2,0.2c0.4,0.1,0.8,0.2,1.2,0.3c-0.5,0.2-1.1,0.2-1.6,0.1c0.1,0.3,0.9,0.6,1.3,0.7
				c-0.3,0.2-0.6,0.3-0.9,0.3c-0.5,0-1.9-0.6-2.3,0.3c0,0.1,0,0.1,0,0.2l0.1,0.2c0,0.1,0,0.3,0,0.3c-0.2,0.3-0.7,0.3-0.9,0.1
				c-0.1,0-0.1-0.1-0.2-0.2c-0.1-0.1-0.1-0.3,0-0.4h0.2c0.7,0.1,0.3-0.7-0.2-0.5c-0.2,0.1-0.3,0.2-0.5,0.3c-0.1,0-0.1,0-0.2-0.1
				c-0.2-0.2-0.2-0.8,0.1-0.9c0,0,0.1,0,0.1,0c0.2,0.3,0.7,0,0.6-0.3l-0.1-0.2c-0.2-0.2-0.6-0.1-0.4-0.5c0.1-0.2,0.3-0.6,0.6-0.6
				s0.3,0.3,0.4,0.5s0.3,0.5,0.6,0.5c0.8,0,1.4-1.1,1.1-1.9c-0.4-1-1.7-0.7-2.7-0.8c-2.5-0.4-3.2-1.9-4.8-3.7l-0.1-0.1
				c-0.1-0.1-0.3-0.1-0.4,0c-1.2,0.6-2.1,1-3.3,1.6c-0.2,0.1-0.4,0.2-0.7,0.3c0.2-0.3,0.6-0.8,0.8-1.1c-0.8,0.4-1.4,1-2.5,1.4
				c-0.1,0-0.2,0-0.2-0.1c0.2-0.3,0.4-0.6,0.5-1c-0.1-0.1-0.1,0-0.3,0.1c-1.1,0.8-1.7,1.4-2.7,1.2c0,0.2,0.4,0.6,1,0.8
				c-0.3,0.3-1.3,0.2-1.8-0.1c-0.1,0.5,0.8,0.8,1,0.9c-0.5,0.4-1.5,0-2-0.2c-0.1,0,0,0.1,0,0.1c0.3,0.6,1.5,0.7,2,0.7
				c-0.7,0.5-1.7,0.5-2.5,0.1c-0.2,0.3,0.8,0.8,1,1c0,0.2-1.1,0.1-1.8-0.5c-0.1,0.3,0.8,0.8,0.9,0.9c-0.4,0.4-1.2,0-1.5-0.1
				c-0.1,0-0.1,0-0.2-0.1l0,0c0.1,0.4,0.6,0.6,1,0.8c-0.6,0.3-1.3,0.1-1.7-0.4c-0.4,0.2-0.7,0.4-0.9,0.8c-0.1,0.2,0,0.4-0.1,0.7
				s-0.2,0.5-0.3,0.6h-0.1c-0.1-0.1,0-0.5-0.1-0.6c-0.9-0.4-0.8,0.5-1.2,0.8s-1-0.5-1-0.7s0.1-0.3,0.3-0.2l0.1,0.1h0.1
				c0.1,0,0.2-0.2,0.2-0.3c0-0.3-0.1-0.5-0.5-0.4c-0.1,0-0.1,0.2-0.2,0.2h-0.1c-0.3-0.3-0.3-1-0.1-1s0.4,0.3,0.7,0.2
				c0.3-0.1,0.2-0.7,0-0.8s-0.5,0.2-0.6,0v-0.1c0.1-0.4,0.4-0.8,0.6-0.8c0.2,0,0.3,0.5,0.6,0.8c0.1,0.1,0.3,0.2,0.4,0.2
				c0.6,0.2,1.2,0.2,1.8,0c1.8-0.8,1-2,1.6-2.3c1.3-0.6,0.7-1.1,1.2-1.4c0.1,0.1,0.1,0.6,0.4,0.7c0.1-0.6,0.2-1,0.8-0.8
				c0.2,0.3,0.4,0.6,0.7,0.8c0.1,0,0.1-0.7,0.1-1c0.5,0.4,1.3,0.4,1.2,0.2c-0.2-0.2-0.4-0.5-0.5-0.8c0.5,0.3,1.3,0.1,1.2-0.1
				s-0.2-0.2-0.2-0.3s0.5-0.2,0.7-0.2c0-0.4-0.4-0.9,0-1.3c0.3,0.2,0.4,0.4,0.8,0.4c0-0.3-0.1-0.7,0.1-0.9c0.7,0,1.4,0,2.2-0.1
				c1.3-0.3,2.2-0.8,3.6-1c0.4-0.1,0.7-0.2,1.1-0.3c0.6,0.1,1.1,0.4,1.4,0.9c0.1,0.1,0.3,0.6,0.4,0.7c0.3,0.4,0.7,0.8,1.2,1.2
				c0.4,0.3,0.8,0.7,1,1.1c0.2,0.3,0.3,0.7,0.4,1.1c0.1,0.3,0.3,0.5,0.5,0.6c1,0.5,1.9-0.8,2.4-0.3l0.1,0.1l0.1,0.1
				c0,0,0.1,0.1,0.2,0.1c0.6,0,1.2-0.1,1.8-0.4c-0.4,0.6-1,1-1.8,1.1c0.2,0.2,1.6-0.1,1.9-0.3c-0.3,0.6-1.1,1-1.8,0.9h-0.1
				c0,0,0,0.1,0.2,0.1c0.4,0.1,0.9,0.1,1.3,0.2c0,0.2-1.5,0.2-1.5,0.5c1.2-0.2,1.3,0.2,1.8,0c0.1,0.1-0.1,0.3-0.3,0.4L54.9,59.3z
				 M52.9,61.9c0,0.3-0.1,0.5-0.3,0.6c0-0.5,0-0.6-0.4-0.9C52.1,61.5,52.6,61.6,52.9,61.9L52.9,61.9z M49,63c0.3,0,0.5,0,0.8-0.2
				c0.1,0.1,0.2,0.2,0.3,0.3C49.8,63.3,49,63.3,49,63L49,63z M48.3,60c0.1-0.2,0.8-0.7,1.2-0.4c-0.1,0.1-0.2,0.3-0.2,0.5
				C48.9,59.9,48.6,59.8,48.3,60L48.3,60z M46.7,58.6c0.2,0.1,0.4,0.3,0.5,0.5c0.1,0.2,0,0.4-0.1,0.5c-0.6,0.2-0.9,0.9-0.6,1.5
				c0.1,0.1,0.1,0.3,0.2,0.4c-1.1-0.2-0.8-1-0.5-1.6c0-0.1,0-0.2-0.1-0.1c-0.7,0.7-0.5,1.3-0.8,1.9c-0.3-0.5-0.3-1.2,0.1-1.6
				c0,0,0,0-0.1,0c-0.5,0.3-0.8,1.1-1,1.6c-0.3-0.3-0.1-1.3,0-1.3s0-0.1-0.1,0c-0.4,0.4-0.7,0.9-0.9,1.5c-0.4-0.3-0.3-0.8-0.3-1.1
				c-0.3,0.2,0,1.1-0.7,1.3h-0.1c-0.1-0.1,0-0.2,0-0.3c0.2-0.2,0.2-0.4,0.1-0.6L42,60.8c-0.3-0.3-0.6-0.4-1-0.4
				c-0.5,0.1-0.9,0.4-1.2,0.8c-0.1,0.1-0.3,0.2-0.5,0.1c-0.4-0.1-0.8-0.8-0.4-1.1c0.2-0.1,0.3,0.2,0.6,0.1s0.2-0.6-0.1-0.7
				c-0.1,0-0.2,0-0.3,0c-0.2,0.1-0.3,0.2-0.4,0.1l-0.1-0.1c-0.1-0.3,0-0.9,0.4-0.9c0.1,0,0.1,0.1,0.2,0.1s0.2,0.2,0.2,0.2
				c0.4,0,0.4-0.3,0.3-0.5c0,0,0-0.2-0.1-0.2s-0.5,0.1-0.6-0.1s0.2-0.8,0.5-0.8s0.3,0.5,0.7,0.6c0.3,0.1,0.5,0.2,0.8,0.3
				c0.1,0.1,0.2,0.1,0.2,0.2c0.2,0.9,1.5,0.8,2.2,0.7c1.4-0.2,2.2-1.1,1.2-1.8c-0.6-0.4-1.5-0.1-2.2-0.2c-1.1-0.2-1.3-0.7-1-1.4
				c0.1-0.2,0.6-0.3,0.7-0.4s0.7-0.5,0.7-0.3c-0.2,0.3-0.3,0.7-0.4,1v0.1c0,0.1,0.1,0.1,0.2,0c0,0,0,0,0,0c0.4-0.5,0.8-0.9,1.4-1.2
				c0.3,0.7,1.1,0.7,1.3,0c0.5,0.5,1.1,1.1,1.1,1.2c-0.1,0.5-0.2,0.9-0.3,1.4c0,0.4,0.5,0.5,0.8,0.7L46.7,58.6z M41,61.6
				c0.2-0.2,0.4-0.5,0.5-0.8c0.1-0.1,0.3,0,0.4,0.1C42.2,61.2,41.3,61.7,41,61.6z M38,58c0.2-0.3,0.7-0.5,0.9-0.2
				c-0.1,0.1-0.1,0.3-0.2,0.4h-0.1C38.4,58.1,38.2,58,38,58L38,58z M27.6,61.9c0.1,0,0.3,0.3,0.3,0.4l0,0.1c-0.3,0.1-0.7,0.2-1,0.1
				C27.1,62.4,27.3,62.2,27.6,61.9L27.6,61.9L27.6,61.9z M27.2,59c-0.2-0.1-0.4-0.1-0.6,0c0.2-0.3,0.5-0.4,0.9-0.4l0,0
				C27.4,58.7,27.3,58.8,27.2,59L27.2,59L27.2,59z M30.9,55.3v-0.1c0,0-0.1,0-0.2,0c-0.5,0.3-1,0.5-1.6,0.4c1-0.6,0.8-0.7,1.3-1.4
				c-0.2-0.3-0.8,0.4-1.2,0.3c0.2-0.1,0.3-0.3,0.4-0.6l0.1-0.2c0.1-0.3,0.3-0.5,0.5-0.5c-0.2-0.2-1.3,0.6-1.3,0.6
				c0.3-0.9,0.8-1.1,0.9-1.6V52l0,0h-0.1c-0.4,0.5-1,0.8-1.6,0.8c0.1-0.5,1.6-0.8,1.8-1.6v0c-0.1,0-0.3,0.3-0.7,0.4
				c-0.3,0.1-0.5,0.1-0.8,0.1c0.3-0.4,0.6-0.7,1-1c-0.4,0-0.9,0.2-1.3,0.2v-0.1l0.1-0.1c0.6-0.4,1.2-0.3,1.2-0.9
				c0-0.2-0.1-0.3-0.2-0.4h-0.2c-0.3,0-0.9,0-0.8-0.4c0.6,0.2,1.1-0.1,0.9-0.7c-0.2-0.3-0.5-0.3-0.9-0.2c-0.1,0-0.2,0-0.2,0
				c-0.2-0.2-0.1-0.6,0.1-0.7h0.1c0.2-0.1,0.4,0.2,0.6,0v-0.2c0-0.5-0.6-0.3-0.6-0.6c0.2-0.3,0.5-0.6,0.9-0.6c0.3,0-0.1,0.5,0.4,0.6
				c0.1,0,0.2-0.1,0.3-0.2c0.3-0.3-0.2-0.4-0.2-0.5c0-0.3,0.7-0.3,0.9-0.1s0.2,0.2,0.1,0.4c-0.2,0.2-0.3,0.4-0.4,0.6
				c-0.2,1-0.2,2.1,0,3.2c0,0.1,0.1,0.1,0.1,0.2c0.2,0.2,0.4,0.1,0.6,0.3c0.4,0.5,0.8,1.1,1,1.7c-0.2,0.2-0.4,0.5-0.7,0.7
				c0,0.2,0.3,0.2,0.5,0.3c0.2,0.1-0.6,0.7-1,0.8v0.1c0.3,0.3,0.7,0.1,1,0.3c-0.2,0.3-0.4,0.6-0.6,0.9c0.1,0.2,1.1-0.1,1.3,0
				C32.7,56,31.2,56.1,30.9,55.3L30.9,55.3z M27.5,45.8c0.3-0.1,0.6,0,0.9,0.2c0,0,0,0.1-0.1,0.2s-0.2,0.3-0.2,0.2
				C27.8,45.8,27.3,45.9,27.5,45.8z M29.5,45.3c-0.1-0.1-0.2-0.2-0.4-0.3c0.4-0.1,0.8,0,1,0.4c-0.2,0-0.3,0.1-0.5,0.1
				C29.6,45.5,29.5,45.4,29.5,45.3L29.5,45.3z M34.3,49.1c0.2,0.2,0.4,0.4,0.5,0.7v0.3c0,0.1-0.2,0.1-0.3,0.1
				c-1.2,0.5-0.8,1.7-2.2,2.5h-0.1C33.2,51.8,33,50,34.3,49.1L34.3,49.1z M34.2,48.9c-0.9,0.6-0.9,1.4-1.9,1.2V50
				c1.1-0.9,1-1.5,1.7-1.8C34.1,48.5,34.1,48.7,34.2,48.9L34.2,48.9z M34.2,47.3c-0.1,0.3-0.2,0.5-0.3,0.8c-0.8,0.2-0.6,1-1.6,1.2
				c-0.1,0-0.1,0-0.2,0C32.4,48.2,33.2,47.5,34.2,47.3L34.2,47.3z M32.7,47.3c0.3-0.3,0.7-0.5,1.2-0.7h0.1c0.2,0,0.2,0.1,0.2,0.2V47
				c0,0.1-0.1,0.1-0.1,0.1C33.9,47.3,33.4,47.2,32.7,47.3C32.7,47.4,32.7,47.4,32.7,47.3L32.7,47.3z M32.9,46.3
				c0.3-0.2,0.6-0.3,1-0.4v0.4c-0.4,0-0.7,0.1-1.1,0.2C32.7,46.5,32.9,46.4,32.9,46.3L32.9,46.3z M34.2,45.3
				c-0.1,0.1-0.2,0.3-0.3,0.4c-0.3,0-0.6-0.1-0.9-0.3C33.8,44.8,34.3,45.2,34.2,45.3z M35.2,45.2c-0.1,0.1-0.2-0.2-0.7,0
				c-0.1,0-0.3-0.1-0.4-0.2c-0.2-0.2-0.2-0.1-0.4-0.4C34.3,44.5,34.9,44.8,35.2,45.2z M36.2,45.5h-0.6c-0.3-0.4-0.5-0.8-0.6-1.2
				C35.7,44.4,36.1,44.9,36.2,45.5z M37.2,45c-0.1,0.3-0.2,0.5-0.3,0.8c0,0.1-0.1-0.1-0.4-0.2c-0.3-0.5-0.4-1-0.5-1.6
				C36.5,44.2,36.9,44.6,37.2,45L37.2,45z M38.6,44.5h0.2h0.2c0,0.1,0,0.1-0.1,0.2c-0.5,0.4-0.9,0.8-1.3,1.3h-0.5
				C37.3,45.2,37.8,44.6,38.6,44.5z M38.9,45.2c0.3-0.1,0.6-0.2,0.8-0.2c0.3,0.1,0.7,0.1,1,0.1c0.1,0,0.1,0,0.1,0
				c-0.2,0.3-0.5,0.2-1,0.3c-0.6,0-1.1,0.3-1.5,0.8c-0.2,0-0.2-0.1-0.3-0.1C38.2,45.6,38.5,45.3,38.9,45.2L38.9,45.2z M40.9,45.4
				c-0.1,0.3-0.3,0.6-0.5,0.7h-0.2c-0.5,0-0.9,0.1-1.3,0.4c-0.1,0-0.1-0.1-0.2,0s-0.3-0.1-0.3-0.2c1-0.9,1.5-0.8,2.4-0.9
				C40.8,45.3,40.9,45.4,40.9,45.4L40.9,45.4L40.9,45.4z M40.9,46.6l-0.1,0.1c-0.4,0.2-0.7-0.1-1.1,0.1c-0.1,0.1-0.1-0.1-0.2-0.2
				c-0.1,0-0.2,0-0.3-0.1C39.8,46.2,40.5,46.2,40.9,46.6z M39.8,49.1c-0.2-0.5-0.5-0.9-0.9-1.1c0.6-0.1,0.6-0.2,0.6-0.2
				c0.4,0,0.7,0.2,0.9,0.6c0.3,1,0.1,1.6,0.5,3.1C40.3,51.4,40.1,49.8,39.8,49.1z M38.6,48.5c-0.1,0,0.1-0.4,0.1-0.4s0.2,0,0.3,0.1
				c1,0.9,0.5,2.5,1.5,3.3c0.1,0.2-0.6,0-0.8-0.3C39.1,50.4,39.4,49.8,38.6,48.5z M38,49.3c0.1,0,0.1,0,0.2-0.1s0.2-0.4,0.2-0.3
				c0.5,0.5,0.7,1.2,0.7,1.9c0.1,0.4,0.3,0.8,0.5,1.2c-0.3-0.1-0.6-0.3-0.8-0.5C38.6,50.7,38.3,50,38,49.3L38,49.3z M37.3,49.8
				c-0.1,0,0.4-0.2,0.5-0.3c0.3,0.5,0.5,1.1,0.5,1.7c0.1,0.6,0.1,1.2-0.1,1.7c-0.7-0.6-0.4-1.5-0.6-2.3
				C37.6,50.3,37.4,50.1,37.3,49.8z M34.8,47.1c0-0.1-0.1-0.4,0.2-0.5c0.1,0,0.2-0.1,0.3-0.2s0.2,0.2,0.3,0.3
				c-0.1,0.3-0.4,0.5-0.3,0.8c0.1,0.1,0.1,0.1,0.2,0.1c0.2-0.1,0.4-0.2,0.5-0.5h0.1c0,0,0.1,0,0.1,0.1c0,0,0,0,0,0
				c0,0.1-0.1,0.3-0.1,0.4s-0.4,0.3-0.5,0.4s-0.3,0.1-0.3,0.2c0.1,0.1,0.2,0.3,0.3,0.4c0.1,0.1,0.2,0,0.3,0s-0.1,0.2-0.1,0.4
				c-0.1,0-0.3-0.1-0.4-0.1s-0.2-0.2-0.2-0.3c0-0.2,0-0.3-0.1-0.4h-0.3c-0.1,0.1-0.1,0.1-0.1,0.2s0,0.2,0.1,0.2s0.2,0.2,0.3,0.3
				s0.4,0.2,0.2,0.4c-0.1,0-0.1,0.1-0.2,0.2S35,49.2,35,49.1c-0.2-0.3-0.4-0.6-0.6-1C34.5,47.8,34.7,47.4,34.8,47.1L34.8,47.1z
				 M36.6,47c-0.3-0.1-1.2-0.9-1.3-0.9c-0.1,0.2-0.2,0.3-0.5,0.4c-0.1,0-0.2,0-0.2,0c-0.2-0.2-0.2-0.6,0-0.9
				c0.1-0.1,0.2-0.1,0.3-0.1c0.2,0,0.3,0.1,0.4,0.3c0.4,0,0.8,0.1,1.2,0.3c0.2,0,0.3,0.2,0.3,0.4S36.7,46.9,36.6,47L36.6,47z
				 M38.3,47.1c-0.3-0.1-1.2,0.3-1.6,0c0.1-0.3,0.4-0.8,0.8-0.8s0.8,0.3,0.9,0.6c0.1,0,0.1,0,0.2-0.1c0.2,0,0.4,0,0.6,0.2
				c0.1,0.1,0.1,0.2,0,0.4s-0.5,0.5-0.7,0.1C38.4,47.4,38.5,47.2,38.3,47.1z M36.6,48.2c0.1,0.2,0.2,0.3,0,0.4c0,0-0.1,0.1-0.1,0
				l-0.3-0.3c-0.2-0.2-0.4,0-0.6,0v-0.2c0.5-0.1,0.7-0.5,0.9-0.9h0.1C36.7,47.3,36.3,47.8,36.6,48.2L36.6,48.2z M35.6,50.2
				c0.2-0.3,0.4-1.2,0.5-1c0.4,0.8-0.5,1.7-0.7,1.6s-0.4-1.1,0.2-1.7c0-0.1,0.1,0,0.1,0c-0.1,0.4-0.2,0.7-0.2,1.1L35.6,50.2z
				 M37.1,48.7c-0.1,0-0.1,0-0.2,0.1c0,0.3-0.8,0.1-0.9,0v-0.4c0.1-0.1,0.2,0.3,0.4,0.3s0.2,0,0.4-0.2c0.1,0,0-0.1,0-0.1
				c-0.2-0.3-0.3-0.8-0.1-1.1H37c0.2,0.2,0,0.6,0.2,0.7s0.2,0.2,0.3,0.2c0.3-0.1,0.1-0.4,0.2-0.7c0.2-0.2,0.4-0.3,0.6-0.3
				c0,0.1,0,0.2,0.1,0.3c0,0.1,0.3,0.2,0.1,0.3c-0.2,0.3-0.3,0.6-0.4,1c-0.5,0.4-1,0.7-1.6,1c-0.1-0.1,0-0.3-0.1-0.6
				c0.2,0,0.4,0,0.6-0.1c0.1,0,0.4,0.1,0.5-0.1S37.4,48.7,37.1,48.7L37.1,48.7z M31.5,53.9c0.8-0.7,1.6-1.5,2.2-2.4
				c0,0.6-0.1,1.1-0.4,1.6C32.9,53.8,31.9,53.9,31.5,53.9z M34.4,55.1c-0.2,0.2-0.4,0.4-0.5,0.6c0,0-0.3-0.8-0.1-1.2
				c0.2-0.1,0.3-0.3,0.4-0.5C34.3,54.3,34.3,54.8,34.4,55.1L34.4,55.1z M34.2,53.5c-0.4,0.9-1.4,1.5-2.4,1.4
				c2.9-1.7,1.7-3.1,2.4-4.2c0.2-0.1,0.3-0.4,0.6-0.4c0,0.4,0.3,0.6,0.2,0.8C34.6,51.9,34.4,52.7,34.2,53.5z M35.2,55.9
				c-0.5-0.8-0.8-1.7-0.7-2.7c0.1-0.7,0.3-1.4,0.6-2c0,0,0,0.1,0.1,0.1c0.3,0,0.3-0.1,0.6-0.3C35.8,52.9,34.7,52.6,35.2,55.9z
				 M36.2,55.5c-0.7-0.1-0.9-1-0.7-2.2c0.1-0.9,0.6-1.4,0.5-2.5c0.1,0,0.3-0.3,0.3-0.5c0.7,1.4-0.7,3.2,0.5,4.4
				c-0.7,0.2-0.9-0.7-0.9-0.5C35.9,54.7,36,55.2,36.2,55.5z M37.4,54.1c-0.4-0.2-0.6-0.6-0.8-1c-0.1-0.9,0.3-1.7-0.1-2.6
				c0-0.1-0.2-0.3,0-0.3c0.2-0.1,0.3-0.2,0.5-0.3c0.4,0.4,0.4,1.6,0.4,2C37.3,52.6,37.3,53.4,37.4,54.1L37.4,54.1z M41.1,48.7
				C41.1,48.8,41.1,48.8,41.1,48.7c-0.2,0.1-0.4,0-0.5-0.4c-0.1-0.4-0.5-0.7-0.9-0.8c0.1-0.2,0-0.4,0-0.6c0.3-0.1,0.6-0.1,0.8,0.1
				c0.3,0.2,0.1,0.7,0.5,1.4C41,48.6,41.1,48.6,41.1,48.7z M41.2,49.4L41.2,49.4c0.6,0.9,1.8,1,2.8,0.8c2-0.3,4.6-1.3,6.3-1.3
				c0.6,0,2,0.3,2,1.2c0,0.5-0.2,0.9-0.6,1.2c-0.9,0.3-1.8,0.5-2.7,0.5c-0.7,0.1-1.4-0.1-2.1-0.4c-0.1-0.1-0.3-0.2-0.4-0.3
				c-0.3-0.1-0.6-0.2-0.9-0.2c-1.4,0-3,0.8-4.1,0.8C41.3,51.7,41.1,50,41.2,49.4L41.2,49.4z M45.9,48.5c-0.6,0.3-1.3,0.5-2.1,0.6
				c-1.1,0-1.3-0.5-1.3-1c0.1-0.7,0.8-1.2,1.5-1c0.1,0,0.1,0,0.2,0C44.8,47.4,45.2,48,45.9,48.5z M42.1,46.8
				c0.6-0.6,1.7-0.9,1.7-1.4c0.1-0.7-0.7-0.8-0.8-0.9c0.5-0.1,0.9,0.1,1.2,0.5c0.1,0.1,0.1-0.7-0.1-1c0.1,0,0.1,0,0.2,0.1
				c0.6,0.4,0.8,1.2,0.5,1.8c0,0.1,0.1,0.2,0.2,0.1c0.4-0.7,1.3-0.7,2-0.9H47l0.1,0.1c-0.1,0.1-0.3,0.2-0.4,0.4v0.1c0,0,0.1,0,0.2,0
				c0.7-0.1,1.4-0.2,2-0.5c0,0.1-0.2,0.6-2.1,1c-0.4,0.6,0.3,1,0.2,1.1c-0.3,0.1-0.7-0.1-0.8-0.4c0-0.1,0-0.2,0-0.3
				c0-0.1,0-0.1-0.1-0.1h-0.1c-0.5,0.7,0.5,1.6,1.1,1.8v0.1c-0.1,0-0.2,0-0.3,0c-2-0.4-1.6-1.9-3.3-1.8c-0.1,0-0.2,0-0.3,0
				c-0.6,0.2-1.1,0.7-1.4,1.3c-0.1,0.6,0.2,1.2,0.8,1.4c1.4,0.4,2.5-0.3,3.6-0.8c0.5,0.2,1.1,0.2,1.5-0.1c0,0-0.4-0.1-0.5-0.3h0.2
				c0.6-0.1,0.9-0.3,0.8-1c0.5,0.1,0.8,0.4,1.1,0.8c0.3,0-0.2-0.9-0.3-1c0.6,0.2,1.1,0.3,1.4,1c0.3,0-0.2-1.2-0.1-1.2
				c1,0.5,0.9,1.3,1,1.2c0.3-0.4,0.1-0.8,0.2-1c0.6,0.3,1.1,0.6,0.8,1.2v0h0.1c0.2,0,0.5-0.6,0.5-0.7c0.3,0.3,0.4,0.8,0.3,1.2
				c0,0.1-0.1,0.1-0.1,0.1v0.1c0.1,0,0.2,0,0.3,0c0.5-0.3,0.4-0.8,0.7-1c0.3,1,0.1,1.6-0.8,1.9c-0.1,0-0.2,0.1-0.2,0.1
				c0.1,0.4,0,0.9-0.2,1.2c-0.3,0.7-0.9,1.1-1.6,1.3c-1.2,0.4-2.6,0.3-3.7-0.3c-0.1-0.1-0.2-0.2-0.3-0.3c1.3,0.4,4.6,0.6,5.2-1.2
				c0.5-1.2-0.7-2.1-1.7-2.2c-2.1-0.2-3.8,0.7-6.3,1.4c-1.2,0.3-3.2,0.2-3.2-1.4C41.3,47.7,41.6,47.1,42.1,46.8L42.1,46.8z
				 M48.2,62.1c0-0.2,0.3-0.8,0.6-0.8c0,0.2,0.1,0.4,0.2,0.6C49.1,62,48.4,62,48.2,62.1z M38.4,61.3c-0.3,0-0.6,0.1-0.9,0.2
				c0.1-0.3,0.5-0.5,0.8-0.6l0,0c0,0.2,0,0.2,0.1,0.3H38.4z M38.2,59.7c0,0.1,0,0.1-0.1,0L38,59.6c-0.2-0.1-0.4-0.1-0.6,0
				c0.2-0.3,0.5-0.5,0.9-0.4C38.4,59.2,38.2,59.2,38.2,59.7L38.2,59.7z M27,60.7L27,60.7c-0.3-0.1-0.6,0-0.8,0.1
				c0.1-0.4,0.7-0.6,0.8-0.5V60.7L27,60.7z M27.6,47.7L27.6,47.7c-0.3,0.1-0.5-0.6-0.5-0.7s0.1,0.3,0.6,0.4
				C27.7,47.5,27.7,47.6,27.6,47.7L27.6,47.7z M56.2,58.5c-0.2,0-0.6,0.1-0.8-0.1c0.2-0.4,0.5-0.3,0.5-0.5s-0.3-0.1-0.4-0.2
				s0.3-0.6,0.2-1c-0.1-0.1-0.2,0-0.3,0c-0.3,0.1,0.4-0.6,0.1-0.8c-0.7,0.2-1.2,0.7-2,0.6c-0.1-0.4-0.5-0.6-0.9-0.7
				c-0.1,0-0.2,0-0.2,0.1c-0.4,0.3-1.2,0.7-1.5,0.4c-0.3-0.3-0.4-0.6-0.5-1c-0.1-0.3-0.1-0.6-0.2-0.9c-0.4-0.6-1.4-0.8-1.7-1.7
				c1.8,0.4,5.2,0.4,5.1-2.8l0.1-0.1c0.7-0.3,1.1-1,1-1.7c0-0.1,0-0.2,0-0.2c0-0.2,0-0.5,0.2-0.7c0-0.1,0.1-0.1,0.1-0.2
				c-0.5-0.4-1.3,1.8-1.8-0.5c0,0-0.1-0.2-0.2-0.2c0,0.2-0.2,0.5-0.4,0.5c-0.5-0.2-0.9-1.3-1.3-1.2c0.1,0.5,0.2,0.8-0.1,0.8H51
				c-0.4-0.1-0.7-0.5-1-0.5c-0.1,0.2,0.1,0.4-0.1,0.6c-0.5,0-1-0.1-1.5-0.3c0,0.1,0.1,0.2,0.1,0.3v0.1c-0.2,0.1-0.4,0-0.5,0l0,0
				c0,0.2,0.4,0.3,0.2,0.8c0,0.1-0.1,0.1-0.1,0.2c-0.2,0.2-1,0.4-1.2-0.1c-0.1-0.2,0.6-0.2,0.7-0.3c-0.1-0.2-0.4-0.3-0.2-0.8
				s2.1-0.8,2-1.9c-0.4-0.1-1.7,0.8-1.6-0.4c0,0-0.1,0-0.2,0c-0.5,0.4-1.2,0.6-1.8,0.6c-0.6-0.2-1.1-1.2-2.2-1.4V44
				c-0.7,0-1.3,0-1.4,0.4c0.6,0,1,0,1.2,0.6s-1.2,0.9-2,1.7c-0.2-0.2-0.6-0.7-0.7-0.7c0.2-0.2,0.3-0.5,0.4-0.8
				c0-0.2-0.1-0.5-0.2-0.7c-0.1-0.1-0.1-0.2-0.2-0.3c-0.5,0.3-1.6,0.2-1.1-0.3c-0.2,0-0.3,0-0.5,0c-0.6-0.1-1.2,0.1-1.8,0.4
				c-0.4-0.5-0.9-0.9-1.6-1c-0.1-0.1-0.2-0.2-0.3-0.2c-0.1,0.5-0.4,0.6-0.9,0.5c0,0.2,0.1,0.3,0.1,0.5c-0.4-0.1-0.7-0.1-1.1,0
				c-0.2,0-0.5,0-0.7-0.1c0,0.1,0.3,0.3,0.3,0.4c-0.1,0.5-0.7,0.6-0.9,0.8c0.2,0.2,0.3,0.2,0.4,0.4s-0.6,0.7-0.7,0.8
				c0.2,0.1,0.6,0.2,0.6,0.3c-0.2,0.4-0.7,0.7-0.7,1.1c0.1,0,0.2-0.1,0.4,0c-0.3,0.4-0.5,0.8-0.6,1.3c0,0.1,0,0.1,0,0.2c0,0,0,0,0,0
				H32c0,0.2-0.1,0.5-0.2,0.7c-0.2,0.2-1-1.1-1-2.1c0-2,0.4-1.6,0.4-2s-0.5-0.4-0.7-0.7c-0.4-0.6-1.3-0.8-1.9-0.4c0,0-0.1,0-0.1,0.1
				c0.3,0.1,0.5,0.1,0.7,0.5c0.1,0.2-0.1,0.2-0.1,0.4c-0.2,0-0.3,0.1-0.4,0c-0.5-0.5-1.3-0.5-1.9,0c0.5,0.1,0.9,0.4,1.1,0.9v0.1
				c-0.2,0.5-0.9-0.3-0.9-0.3c-0.3,0.5-0.2,1.2,0.3,1.5c0,0,0,0,0,0h0.1c0.2,0,0.1,0.2,0.2,0.3l0.2,0.1c0.2,0,0.3,0,0.5,0
				c0.1,0,0.1,0,0.2,0c0.1,0.1,0.1,0.1,0,0.2l-0.1,0.1c-0.2,0.1-0.4,0-0.5,0c0,0.2,0,0.4,0.1,0.5c0.2,0.2,0.5,0.3,0.8,0.3
				c0.2,0,0.2,0.3,0.1,0.4c-0.6,0.4-1.1,0.5-1.4,1.1c0.3-0.1,0.6-0.1,0.6,0.1s-0.2,0.4-0.4,0.6c0,0-0.1,0-0.1,0.1
				c0.2,0.1,0.5-0.1,0.6,0.1s-0.7,0.7-0.6,1c0.4-0.1,0.9-0.2,1,0.3c0,0.3-0.2,0.6-0.5,0.8c0.4,0,0.8-0.2,0.9,0s-0.6,0.5-0.6,0.8
				c0.2-0.1,0.5-0.1,0.8-0.1c0.2,0.4-0.7,0.7-0.8,0.7c0.3,0.5,1.6,0.4,2.2,0.1c0.2,0.8,1.3,0.8,1.3,1c-0.3,0.3-0.5,0.7-0.5,1.1
				c0.3,0.7,0,1.5-0.7,1.8c-0.2,0.1-0.5,0.1-0.8,0.1c-0.6,0-1.2-0.1-1.4-0.7s-0.6-0.6-1-0.3c-0.6-0.2-1.3,0.1-1.6,0.8
				c0.4-0.1,1.6,0.3,0.9,1c-0.5,0-1,0.3-1.1,1.1c2.2-0.6,1.9,0.8,0.4,1.2c0.9,0.8,1.3,0.5,2,0.2c0.1-0.1,0.2-0.1,0.3,0
				c0.6,0.2,0.6-0.5,0.8-0.6c0.1-0.1,0.2-0.1,0.3,0l0.1,0.1c0.1,0.4-0.2,0.6,0,0.7c0.6,0.1,1.1-0.7,1.2-1.4l0.1-0.2
				c0.1-0.1,0.3-0.3,0.4-0.3c0.4-0.1,0.8,0.7,2.4,0.2c0-0.1-0.2-0.3-0.1-0.4c0.3-0.1,0.6-0.2,0.9-0.3c0.3-0.3,0.8-0.2,1.1-0.5
				c-0.1,0-0.3-0.1-0.3-0.2s0.7-0.1,0.6-0.3c-0.1,0-0.1,0-0.2-0.1c-0.2-0.1,1.4-0.8,1.4-0.9c-0.1,0-0.6-0.6-0.4-0.7
				c0.3-0.1,0.6-0.2,0.9-0.5c0.3-0.1,2.2-0.7,3-1c0,0.7,0.1,1,0.3,1.2c0.2,0.2,0.5,0.3,0.8,0.4c0.6,0.1,1.2-0.1,1.9,0s0.6,0.8-0.1,1
				c-0.4,0.1-0.8,0.1-1.2,0.1c-0.4,0-0.8-0.2-1.1-0.6c-0.1-0.1-0.2-0.2-0.3-0.2c-0.2-0.1-0.5-0.2-0.7-0.3c-0.2-0.2-0.3-0.6-0.7-0.6
				c-0.2,0-0.4,0.1-0.5,0.2c-0.5-0.2-1.2,0-1.4,0.5c-0.1,0.1-0.1,0.3-0.1,0.5c0.3-0.2,0.7-0.1,0.9,0.1c0,0,0,0.1,0.1,0.1
				c0,0,0,0.1,0,0.2c0,0.1-0.1,0.2-0.2,0.2c-0.9-0.5-1.6,0.8-1.3,1c0.3-0.2,0.8-0.2,1.1,0c0.2,0.1,0.2,0.3,0.2,0.5
				c-0.6,0.2-0.9,0.4-1.1,1.3c0,0.2,0.1,0.1,0.1,0.1c0.4-0.3,1-0.4,1.5-0.4c0.2,0.3,0.7,0.4,1,0.2c0.4-0.3,0.8-0.9,1-0.9
				s0.1-0.1,0.2,0c0,0.1,0,0.2,0,0.3c-0.1,0.2-0.3,0.3-0.5,0.5c0,0.1,0.2,0.2,0.5,0.2c0.3,0,0.6,0,0.9-0.2H42c0,0,0,0,0,0.1
				S41.8,62,41.9,62c0.4,0.1,0.9,0,1.1-0.4c0.2,0.2,0.3,0.5,0.6,0.6c0-0.3,0.1-0.7,0.4-0.9c0,0.2,0.3,1,0.5,0.8
				c0-0.2,0.1-0.3,0.2-0.5l0.1-0.1c0.1,0,0.3,0.7,0.6,0.6c0.1-0.3,0.3-0.6,0.5-0.8c0.4,0.1,0.9,0.2,1.4,0.2
				c-0.3-0.3-0.5-0.7-0.5-1.1c0-0.4,0.5-0.5,0.7-0.8c0.2-0.2,0.3-0.4,0.3-0.7c-0.1-0.4-0.6-0.6-0.9-0.9c-0.2-0.3-0.2-0.7-0.1-1
				l0.1-0.1c0.5,0.4,0.9,0.7,1.3,1c0.5,0.4,1.2,0.5,1.8,0.4c0.7-0.1,2.1,0,2.1,0.8c0,0.4-0.5,1-0.9,0.8s-0.3-0.8-0.7-0.8
				c-0.2-0.1-0.5,0.1-0.7,0.3C49,59,48.2,59.3,47.8,60c0,0,0,0.1-0.1,0.2c0,0.2,0.2,0.1,0.3,0.1c0.4-0.1,0.9,0,1.2,0.3
				c0,0.1-0.1,0-0.4,0.5c-0.6,0.3-1,0.9-1,1.5c0,0.1,0,0.1,0.1,0.1c0.5-0.3,1-0.5,1.6-0.5c0.1,0.1,0.1,0.2,0.1,0.4
				c-0.4,0.2-0.8,0.3-1.2,0.3c-0.1,0-0.1,0.1,0,0.2c0.6,0.5,1.5,0.6,2.2,0.2c0.9,0.1,1.3-0.6,1-1.1c0-0.1,0-0.1,0.1-0.2c0,0,0,0,0,0
				c0.5-0.1,0.7,0.6,0.6,1c0.5,0.2,1-0.5,1.1-1c0.6,0,1.2-0.2,1.6-0.6c-0.2,0-0.4-0.1-0.5-0.2c-0.1-0.1-0.1-0.1-0.1-0.2
				s0.6-0.3,0.8-0.5c0-0.1-0.2-0.2-0.2-0.3s0.6-0.3,0.6-0.6c0,0-0.4,0-0.4-0.1C55.6,59.2,55.9,58.8,56.2,58.5L56.2,58.5z"/>
			<path class="st9" d="M41.9,61c-0.1-0.1-0.3-0.2-0.4-0.1c-0.1,0.3-0.3,0.5-0.5,0.8C41.3,61.7,42.2,61.2,41.9,61z"/>
			<path class="st9" d="M29.5,45.3c0,0.1,0.1,0.1,0.2,0.1c0.2,0,0.3-0.1,0.5-0.1c-0.2-0.4-0.6-0.5-1-0.4
				C29.2,45.1,29.4,45.2,29.5,45.3L29.5,45.3z"/>
			<path class="st9" d="M49.4,59.5c-0.4-0.3-1.1,0.2-1.2,0.4c0.3-0.1,0.7-0.1,1,0.1C49.3,59.8,49.4,59.7,49.4,59.5L49.4,59.5z"/>
			<path class="st9" d="M28.1,46.4c0,0,0.1-0.1,0.2-0.2s0.1-0.2,0.1-0.2c-0.3-0.2-0.6-0.2-0.9-0.2C27.3,45.9,27.8,45.8,28.1,46.4z"
				/>
			<path class="st9" d="M35.6,49.1c-0.6,0.6-0.4,1.7-0.2,1.7s1.1-0.8,0.7-1.6c-0.1-0.2-0.3,0.8-0.5,1h-0.1
				C35.5,49.8,35.6,49.4,35.6,49.1C35.7,49.1,35.6,49,35.6,49.1L35.6,49.1z"/>
			<path class="st9" d="M38.4,60.9c-0.4,0-0.7,0.3-0.8,0.6c0.3-0.1,0.6-0.2,0.9-0.2h0.1C38.4,61.1,38.4,61.1,38.4,60.9L38.4,60.9z"
				/>
			<path class="st9" d="M27.4,58.6c-0.3-0.1-0.7,0.1-0.9,0.4c0.2-0.1,0.4-0.1,0.6,0l0.1-0.1C27.4,58.8,27.4,58.7,27.4,58.6
				L27.4,58.6L27.4,58.6z"/>
			<path class="st9" d="M27.6,61.9L27.6,61.9c-0.2,0.2-0.4,0.4-0.7,0.5c0.3,0.1,0.7,0.1,1-0.1l0-0.1C27.9,62.2,27.8,61.9,27.6,61.9
				L27.6,61.9z"/>
			<path class="st9" d="M38.6,58.2c0.1-0.1,0.1-0.3,0.2-0.4c-0.2-0.3-0.7-0.1-0.9,0.2c0.2,0,0.4,0.1,0.6,0.2L38.6,58.2L38.6,58.2z"
				/>
			<path class="st9" d="M26.3,60.9c0.2-0.1,0.5-0.2,0.7-0.1H27v-0.3C27,60.3,26.4,60.5,26.3,60.9L26.3,60.9z"/>
			<path class="st9" d="M38.2,59.3c-0.3-0.1-0.7,0.1-0.9,0.4c0.2-0.1,0.4-0.1,0.6,0l0.1,0.1c0.1,0,0.1,0,0.1,0
				C38.1,59.3,38.3,59.3,38.2,59.3L38.2,59.3z"/>
			<path class="st9" d="M27.1,47.1c-0.1,0.1,0.2,0.8,0.5,0.8v-0.1c0-0.1,0.1-0.2,0.1-0.3C27.2,47.4,27.2,47.1,27.1,47.1L27.1,47.1z"
				/>
			<path class="st9" d="M48.9,63c0.1,0.3,0.9,0.3,1.1,0.1c-0.1-0.1-0.2-0.2-0.3-0.3C49.5,62.9,49.2,63,48.9,63z"/>
			<path class="st9" d="M48.8,61.2c-0.3,0-0.6,0.6-0.6,0.8c0.2-0.1,0.9-0.1,0.8-0.2C48.9,61.6,48.9,61.4,48.8,61.2z"/>
			<path class="st9" d="M52.8,61.8c-0.2-0.2-0.7-0.2-0.6-0.2c0.4,0.3,0.4,0.4,0.4,0.9C52.8,62.4,52.9,62.1,52.8,61.8L52.8,61.8z"/>
		</g>
		<path class="st10" d="M48.9,14.4c-2.3,0.1-3.3-1.4-5.3-1.4c-1.3,0-2.5,0.5-3.4,1.4c-0.9-0.9-2.2-1.3-3.4-1.4c-2,0-3,1.5-5.3,1.4
			c-0.3,0-0.6-0.1-0.8-0.1v7.7c0.3,0.1,0.6,0.1,0.8,0.1c2.3,0.1,3.3-1.4,5.3-1.4c1.3,0,2.5,0.5,3.4,1.4l0,0l0,0l0,0l0,0
			c0.9-0.9,2.2-1.4,3.4-1.4c2,0,3,1.5,5.3,1.4c0.3,0,0.6-0.1,0.9-0.1v-7.7C49.5,14.4,49.2,14.4,48.9,14.4z"/>
		<polygon class="st11" points="28.9,22.8 41,22.8 41,23.7 28.9,23.7 28.9,22.8 		"/>
		<polygon class="st11" points="29.8,14.2 29.8,23.7 28.9,23.7 28.9,14.2 29.8,14.2 		"/>
		<polygon class="st11" points="51.4,22.8 39.3,22.8 39.3,23.7 51.4,23.7 51.4,22.8 		"/>
		<polygon class="st11" points="50.5,14.2 50.5,23.7 51.4,23.7 51.4,14.2 50.5,14.2 		"/>
		<polygon class="st11" points="27.4,20.7 29,19.8 29,21.6 27.4,20.7 		"/>
		<polygon class="st11" points="27.4,17.2 29,16.4 29,18.1 27.4,17.2 		"/>
		<polygon class="st11" points="52.9,20.7 51.4,19.8 51.4,21.6 52.9,20.7 		"/>
		<polygon class="st11" points="52.9,17.2 51.4,16.4 51.4,18.1 52.9,17.2 		"/>
		<path class="st3" d="M49.8,13.5h-0.2c-0.2,0.1-0.5,0.1-0.7,0.1c-0.9,0-1.8-0.1-2.6-0.5c-0.8-0.4-1.7-0.7-2.7-0.8h-0.1
			c-1.2,0-2.4,0.4-3.4,1.2c-1-0.7-2.1-1.1-3.4-1.2h-0.1c-1,0-1.9,0.3-2.7,0.8c-0.8,0.4-1.7,0.6-2.6,0.6c-0.2,0-0.5,0-0.7-0.1h-0.2
			V14h0.1c0.3,0.1,0.5,0.1,0.8,0.1c1,0,1.9-0.2,2.7-0.7c0.8-0.4,1.7-0.7,2.5-0.7h0.1c1.2,0,2.3,0.5,3.2,1.2l0.1,0.1l0.1-0.1
			c0.9-0.7,2.1-1.1,3.2-1.2h0.1c0.9,0,1.8,0.3,2.5,0.7c0.8,0.4,1.6,0.6,2.5,0.7h0.2c0.3,0,0.5,0,0.8-0.1h0.1v-0.4L49.8,13.5z"/>
		<path class="st1" d="M69,10.4H11.3v58.3c0,2.5,1.5,4.7,3.7,5.8l25.2,12l25.1-11.9c2.2-1,3.7-3.3,3.7-5.8V10.4z M67.7,11.6v57.2
			c0,2-1.2,3.8-3,4.7L40.2,85.1L15.6,73.3c-1.8-0.8-3-2.6-3-4.7V11.6H67.7"/>
		<path class="st1" d="M33.8,17.9c0,0.4-0.4,0.7-0.8,0.7c0,0,0,0,0,0c-0.3,0-0.6-0.1-0.8-0.3v-0.1l0.2-0.2h0.1
			c0.1,0.1,0.3,0.2,0.5,0.2c0.2,0,0.3-0.1,0.3-0.3c0-0.4-1.1-0.3-1.1-1c0-0.4,0.3-0.6,0.7-0.6c0,0,0,0,0,0c0.3,0,0.5,0.1,0.7,0.3
			v0.1l-0.2,0.2h-0.1c-0.1-0.1-0.3-0.2-0.4-0.2c-0.2,0-0.3,0.1-0.3,0.2C32.7,17.3,33.8,17.1,33.8,17.9L33.8,17.9z"/>
		<path class="st1" d="M36.3,18.2L36.3,18.2c-0.2,0.3-0.5,0.4-0.8,0.4c-0.6,0-1.1-0.5-1.1-1.1c0-0.6,0.5-1.1,1.1-1.1
			c0.3,0,0.6,0.1,0.8,0.3v0.1l-0.2,0.2h-0.1c-0.1-0.1-0.3-0.2-0.5-0.2c-0.4,0-0.7,0.3-0.7,0.7c0,0,0,0,0,0c0,0.4,0.3,0.7,0.7,0.7
			c0,0,0,0,0,0c0.2,0,0.4-0.1,0.5-0.2h0.1L36.3,18.2L36.3,18.2z"/>
		<polygon class="st1" points="37.1,16.3 37.4,16.3 37.5,16.4 37.5,18.5 37.4,18.5 37.1,18.5 37,18.5 37,16.4 37.1,16.3 		"/>
		<polygon class="st1" points="39.6,18.2 39.6,18.5 39.6,18.5 38.3,18.5 38.3,18.5 38.3,16.4 38.3,16.3 39.5,16.3 39.6,16.4 
			39.6,16.6 39.5,16.7 38.7,16.7 38.7,17.2 39.5,17.2 39.5,17.2 39.5,17.5 39.5,17.6 38.7,17.6 38.7,18.1 39.6,18.1 39.6,18.2 		"/>
		<polygon class="st1" points="42.2,16.4 42.2,18.5 42.2,18.5 41.8,18.5 41.7,18.5 40.8,17 40.8,18.5 40.8,18.5 40.4,18.5 
			40.4,18.5 40.4,16.4 40.4,16.3 40.8,16.3 40.9,16.3 41.8,17.8 41.8,16.4 41.8,16.3 42.2,16.3 42.2,16.4 		"/>
		<polygon class="st1" points="44.4,16.4 44.4,16.6 44.3,16.7 43.9,16.7 43.9,18.5 43.8,18.5 43.5,18.5 43.4,18.5 43.4,16.7 
			42.9,16.7 42.9,16.6 42.9,16.4 42.9,16.3 44.3,16.3 44.4,16.4 		"/>
		<polygon class="st1" points="45.1,16.3 45.4,16.3 45.5,16.4 45.5,18.5 45.4,18.5 45.1,18.5 45,18.5 45,16.4 45.1,16.3 		"/>
		<path class="st1" d="M47.4,17.7l-0.3-0.9l-0.3,0.9H47.4z M48.1,18.5h-0.4h-0.1l-0.1-0.5h-0.8l-0.1,0.4l0,0h-0.4v0l0.8-2.1H47h0.3
			h0.1l0.8,2.1v0L48.1,18.5z"/>
		<polygon class="st11" points="40.2,37 39.5,35.3 37.7,36 38.5,34.3 36.7,33.7 38.5,33 37.7,31.3 39.5,32.1 40.2,30.3 40.9,32.1 
			42.6,31.3 41.8,33 43.6,33.7 41.8,34.3 42.6,36 40.9,35.3 40.2,37 		"/>
		<polygon class="st11" points="40.1,76.1 39.4,74.4 37.7,75.1 38.5,73.4 36.7,72.8 38.5,72.1 37.7,70.4 39.4,71.2 40.1,69.5 
			40.8,71.2 42.5,70.4 41.8,72.1 43.5,72.8 41.8,73.4 42.5,75.1 40.8,74.4 40.1,76.1 		"/>
		<polygon class="st11" points="61.9,57.2 61.2,55.5 59.5,56.2 60.2,54.5 58.5,53.8 60.2,53.2 59.5,51.5 61.2,52.2 61.9,50.5 
			62.6,52.2 64.3,51.5 63.6,53.2 65.3,53.8 63.6,54.5 64.3,56.2 62.6,55.5 61.9,57.2 		"/>
		<polygon class="st11" points="18.6,57.2 17.9,55.5 16.2,56.2 16.9,54.5 15.2,53.8 16.9,53.2 16.2,51.5 17.9,52.2 18.6,50.5 
			19.3,52.2 21,51.5 20.2,53.2 22,53.8 20.2,54.5 21,56.2 19.3,55.5 18.6,57.2 		"/>
		<path class="st12" d="M48.7,80.5"/>
		<g>
			<path class="st11" d="M46.8,86.9l2,1.8l1.1,1l1.2,1.1l-1.1,0.3c-0.5,0.1-1,0.3-1.5,0.4s-0.9,0.2-1.4,0.3l-0.3,0.1L46.8,86.9z"/>
			<path class="st11" d="M33.6,86.9v4.9c-0.4-0.1-0.8-0.2-1.3-0.3c-0.4-0.1-1-0.2-1.5-0.4s-1-0.3-1.5-0.5l1.2-1l1.1-1L33.6,86.9z"/>
			<path class="st10" d="M68.5,78.2c0,0.1,0,0.1,0,0.2c0,1.2,0,2.4,0,3.6v5.5c0,0.5-0.3,0.9-0.7,1.1c-0.7,0.3-1.3,0.6-2,0.9L64.8,90
				l-10.2,4.5L53,95.2l-1.1,0.5V91c0-0.2-0.1-0.4-0.2-0.5l-1.4-1.2l-1.1-1c-0.6-0.6-1.3-1.2-2-1.7h0.1l14.2-6.4l2.6-1.2
				c1-0.5,2-1,3-1.4l0.5-0.2c0.4-0.2,0.6-0.1,0.8,0S68.5,77.8,68.5,78.2z"/>
			<path class="st10" d="M51.3,99.6L51.3,99.6l-1.2,0.4l-1.1,0.3l-1.1,0.3l-1,0.2l-1,0.2l-0.9,0.2l-0.8,0.1l-0.8,0.1
				c-0.2,0-0.5,0-0.7,0.1h-0.6h-0.5h-0.4c-0.9,0-1.6,0-2.4,0c-0.2,0-0.4,0-0.6,0h-0.6l-0.7-0.1l-0.8-0.1l-0.9-0.1l-0.9-0.2l-1-0.2
				l-1-0.2l-1.1-0.3c-0.4-0.1-0.8-0.2-1.2-0.3l-0.8-0.3l0,0v-8.2c0.5,0.2,1,0.3,1.6,0.5s1,0.3,1.5,0.4c0.5,0.1,0.9,0.2,1.4,0.3
				l1.3,0.2l1.2,0.2l1,0.1h1h0.8c0.4,0,0.9,0,1.3,0h0.6c0.4,0,0.8,0,1.3,0h0.8l0.9-0.1l1.1-0.1l1.2-0.2c0.4-0.1,0.9-0.2,1.3-0.2
				s0.9-0.2,1.4-0.3s1-0.3,1.5-0.4l1.1-0.3L51.3,99.6z"/>
			<path class="st10" d="M28.7,90.5c-0.1,0.1-0.2,0.3-0.2,0.5v4.7l-1.1-0.5l-1.6-0.7L15.6,90c-0.4-0.2-0.7-0.3-1.1-0.5
				c-0.7-0.3-1.4-0.6-2-0.9c-0.4-0.2-0.7-0.7-0.7-1.1v-9.3c0-0.4,0-0.8,0.2-1c0.1-0.1,0.2-0.1,0.3-0.1c0.2,0,0.3,0.1,0.4,0.1
				l0.5,0.2c1,0.5,2,1,3,1.4l2.6,1.2L33,86.5h0.1l-2,1.8l-1.1,1L28.7,90.5z"/>
			<path class="st10" d="M48.7,90.5"/>
			<path class="st10" d="M32.6,90.6"/>
			<path class="st12" d="M48.7,90.5"/>
			<path class="st12" d="M32.6,90.6"/>
			<path class="st13" d="M33.6,92.2"/>
			<g>
				<path class="st1" d="M15.5,85c0.1-0.1,0.2-0.1,0.2-0.1s0.1,0.2,0,0.3l0,0c-0.1,0.2-0.2,0.3-0.4,0.4c-0.3,0-0.6-0.1-0.8-0.2
					c-0.8-0.3-1.1-1.2-0.8-2c0,0,0-0.1,0-0.1c0.4-0.8,1.3-1.1,2.1-0.8c0.1,0,0.1,0.1,0.2,0.1c0.2,0.1,0.4,0.3,0.6,0.5
					c0.1,0.2,0.1,0.3,0,0.4l0,0c-0.1,0.2-0.1,0.2-0.3,0.2s-0.1-0.1-0.1-0.2c-0.1-0.2-0.1-0.3-0.2-0.4c-0.1-0.1-0.2-0.2-0.3-0.3
					c-0.5-0.2-1.1,0.1-1.4,0.7l-0.1,0.1c-0.3,0.8,0,1.3,0.4,1.5c0.2,0.1,0.4,0.1,0.5,0C15.3,85.1,15.4,85,15.5,85z"/>
				<path class="st1" d="M17.2,86.7c-0.7-0.3-1.1-1.1-0.8-1.9c0-0.1,0.1-0.1,0.1-0.2c0.3-0.8,1.3-1.1,2-0.8c0,0,0,0,0.1,0
					c0.8,0.3,1.1,1.2,0.8,1.9c0,0.1,0,0.1-0.1,0.2C18.9,86.7,18,87,17.2,86.7C17.2,86.7,17.2,86.7,17.2,86.7z M17,84.7
					c-0.3,0.7-0.3,1.4,0.3,1.7s1-0.1,1.3-0.7s0.3-1.4-0.3-1.7S17.4,84.1,17,84.7z"/>
				<path class="st1" d="M21.5,88.6c0,0.1-0.1,0-0.1,0L21,88.5c-0.1,0-0.2-0.1-0.2-0.3c0-0.1,0-0.4,0-0.7s0-0.6-0.2-0.8l-0.2-0.1
					h-0.1c0,0-0.1,0-0.1,0L20,87.1c-0.1,0.3-0.2,0.4-0.1,0.4c0,0.1,0,0.1,0.1,0.2c0,0,0.1,0.1,0,0.1s-0.1,0.1-0.2,0L19,87.5
					c-0.1,0-0.1-0.1-0.1-0.2s0.1-0.1,0.1-0.1c0.1,0,0.1,0,0.2-0.1c0.1-0.1,0.2-0.2,0.2-0.4l0.7-1.5c0.1-0.2,0.1-0.3,0.1-0.4
					s-0.1-0.1-0.1-0.2s0.1-0.1,0.1,0l0.7,0.3l0.4,0.2c0.3,0.1,0.5,0.3,0.7,0.6c0.1,0.2,0.1,0.4,0,0.6c0,0.1-0.1,0.2-0.2,0.2
					c-0.2,0.2-0.5,0.2-0.8,0.1l0,0l0,0c0.3,0.2,0.3,0.4,0.3,1s0,0.6,0,0.7S21.5,88.5,21.5,88.6z M21.5,86.2c0.2-0.4-0.1-0.6-0.4-0.7
					l-0.2-0.1c0,0-0.1,0-0.1,0l-0.4,0.8c0,0,0,0.1,0,0.1l0.2,0.1c0.2,0.2,0.6,0.2,0.8-0.1C21.5,86.3,21.5,86.2,21.5,86.2z"/>
				<path class="st1" d="M25,88.7c-0.4,0.8-1.3,1.1-2.1,0.8c-0.1,0-0.1-0.1-0.2-0.1l-0.9-0.4c-0.1,0-0.1-0.1-0.1-0.2s0.1,0,0.1-0.1
					c0.1,0,0.1,0,0.2-0.1c0.1-0.1,0.2-0.2,0.2-0.4l0.7-1.5c0.1-0.2,0.1-0.3,0.1-0.4s-0.1-0.1-0.1-0.2s0.1-0.1,0.2,0l0.6,0.3
					c0.5,0.2,0.9,0.5,1.2,0.9C25.2,87.7,25.2,88.2,25,88.7z M24.4,88.4c0.2-0.4,0.2-0.9,0-1.2c-0.2-0.2-0.4-0.4-0.7-0.5
					c-0.1,0-0.1,0-0.1,0.1l-0.8,1.7l0,0c-0.1,0.2-0.2,0.3-0.1,0.4s0.1,0.1,0.2,0.2c0.3,0.2,0.6,0.2,1,0.1
					C24.1,88.9,24.3,88.7,24.4,88.4L24.4,88.4z"/>
				<path class="st1" d="M27.2,90.6l-0.1,0.1c-0.2,0.2-0.3,0.5-0.5,0.5c0,0-0.1,0-0.1,0c-0.1-0.1-0.3-0.2-0.7-0.4l-1.1-0.5
					c-0.1,0-0.1-0.1-0.1-0.2c0,0,0.1-0.1,0.1-0.1c0.1,0,0.1,0,0.2-0.1c0.1-0.1,0.2-0.2,0.2-0.4l0.7-1.5c0.1-0.2,0.1-0.3,0-0.4
					S26,87.6,26,87.6s0.1-0.1,0.2,0l1,0.5c0.4,0.2,0.7,0.3,0.8,0.3c0.1,0,0.1,0.1,0.1,0.2c0,0.1-0.1,0.2-0.1,0.3
					c0,0.1-0.1,0.2-0.1,0.3c0,0.1-0.1,0.1-0.1,0.1c0,0,0,0,0,0c-0.1,0-0.1-0.1-0.1-0.2c0-0.1,0-0.3-0.1-0.4
					c-0.1-0.2-0.3-0.3-0.5-0.3l-0.2-0.1c-0.1,0-0.1,0-0.1,0l-0.4,0.7c0,0.1,0,0.1,0.1,0.2l0,0c0.1,0,0.2,0.1,0.3,0.1l0.4,0.2
					c0.1,0,0.1,0.1,0.1,0.1l0,0.1c0,0,0,0.1-0.1,0.1c-0.1,0-0.1,0-0.2,0l-0.5-0.3l-0.2-0.1c0,0-0.1,0-0.1,0L25.7,90
					c-0.1,0.2-0.1,0.3-0.1,0.4c0.1,0.1,0.1,0.1,0.2,0.1c0.1,0.1,0.2,0.1,0.3,0.1c0.2,0.1,0.5,0,0.7-0.2c0.1-0.1,0.2-0.1,0.2-0.1h0.1
					C27.2,90.5,27.2,90.5,27.2,90.6z"/>
			</g>
			<g>
				<path class="st1" d="M56.4,89.7c0,0.1,0,0.1-0.1,0.2l-0.8,0.4c-0.1,0-0.1,0-0.2,0s0-0.1,0-0.1c0-0.1,0.1-0.1,0.1-0.2
					c0-0.2-0.1-0.4-0.2-0.5c0,0-0.7-1.4-0.7-1.5s0,0,0,0l0,0l0,2.1c0,0.1,0,0.1-0.1,0.1l-0.1,0.1c0,0-0.1,0-0.1,0l-1.6-1.4l0,0l0,0
					c0.1,0.1,0.6,1.2,0.8,1.6s0.3,0.4,0.5,0.4s0.2,0,0.2,0.1s0,0.1-0.1,0.2l-0.7,0.3c-0.1,0.1-0.2,0-0.2,0s0-0.1,0.1-0.2
					s0-0.3-0.2-0.8l-0.7-1.5c0,0,0-0.1-0.1-0.1c0,0-0.1,0-0.1,0c-0.1,0-0.2,0-0.2-0.1s0-0.1,0.1-0.2l0.7-0.3c0.1,0,0.1,0,0.2,0
					l1.4,1.2l0,0l0,0v-1.8c0-0.1,0-0.1,0.1-0.1l0.6-0.4c0.1,0,0.1,0,0.2,0s0,0.1-0.1,0.2s0,0.2,0.1,0.5l0.7,1.5
					c0,0.1,0.1,0.3,0.2,0.4c0.1,0,0.1,0.1,0.2,0.1C56.3,89.6,56.4,89.6,56.4,89.7z"/>
				<path class="st1" d="M58.8,87.9c0,0,0,0.1,0,0.1c0,0.3,0.2,0.5,0.1,0.7c0,0-0.1,0.1-0.1,0.1c-0.1,0-0.3,0.1-0.7,0.3l-1,0.5
					c-0.1,0-0.2,0-0.2,0s0-0.1,0-0.1c0-0.1,0.1-0.1,0.1-0.2c0-0.2-0.1-0.3-0.1-0.4l-0.7-1.5C56,87,55.9,87,55.8,86.9s-0.2,0-0.2-0.1
					s0-0.1,0.1-0.1l1-0.5c0.4-0.2,0.7-0.3,0.8-0.4c0.1,0,0.1,0,0.2,0c0,0,0,0,0,0l0.1,0.3c0,0.1,0.1,0.2,0.1,0.3c0,0.1,0,0.1,0,0.2
					c0,0,0,0,0,0c-0.1,0-0.1,0-0.2-0.1c-0.1-0.1-0.2-0.2-0.3-0.2c-0.2,0-0.4,0.1-0.6,0.2l-0.2,0.1c-0.1,0-0.1,0.1,0,0.1l0.3,0.7
					c0,0.1,0.1,0.1,0.2,0l0,0l0.3-0.1l0.4-0.2c0.1,0,0.1,0,0.2,0v0.1c0,0.1,0,0.1,0,0.2s-0.1,0.1-0.1,0.1s-0.3,0.1-0.5,0.2L57,87.9
					c0,0,0,0.1,0,0.1l0.3,0.6c0.1,0.2,0.1,0.3,0.2,0.3c0.1,0,0.2,0,0.2-0.1c0.1-0.1,0.2-0.1,0.3-0.2c0.2-0.1,0.3-0.4,0.3-0.7
					c0-0.1,0-0.2,0.1-0.2h0.1C58.7,87.8,58.7,87.8,58.8,87.9z"/>
				<path class="st1" d="M60.8,84.4c0.1,0,0.2,0,0.2,0s0,0.1-0.1,0.2s-0.1,0.2,0,0.5s0.9,2,1,2.1s0,0.1,0,0.1l-0.3,0.1
					c0,0-0.1,0-0.1,0l-2.4-1.4l0,0l0,0c0.2,0.3,0.5,1.2,0.6,1.4s0.3,0.3,0.5,0.3s0.2,0,0.2,0.1s0,0.1-0.1,0.2l-0.8,0.3
					c-0.1,0-0.2,0-0.2,0s0-0.1,0.1-0.2s0.1-0.2,0-0.6c-0.1-0.2-0.7-1.7-0.8-1.8c0,0,0,0,0,0c-0.1,0-0.1,0-0.2,0
					c-0.1,0-0.2,0-0.3-0.1s0-0.1,0.1-0.2l0.5-0.2c0.1,0,0.1,0,0.2,0l2.3,1.3l0,0l0,0c-0.2-0.4-0.5-1.1-0.6-1.4S60.3,85,60.2,85
					S60,85,60,84.9s0-0.1,0.1-0.2L60.8,84.4z"/>
				<path class="st1" d="M63.7,84c0,0-0.1,0-0.2-0.1c-0.1-0.1-0.2-0.2-0.4-0.2c-0.1,0-0.3,0-0.4,0.1c-0.1,0-0.1,0.1,0,0.1
					s0.8,1.7,0.8,1.7c0,0.1,0.1,0.3,0.2,0.4c0.1,0,0.1,0.1,0.2,0.1c0.1,0,0.1,0,0.1,0.1s0,0.1-0.1,0.2l-0.8,0.4c-0.1,0-0.1,0-0.2,0
					c0,0,0-0.1,0-0.1c0-0.1,0.1-0.1,0.1-0.2c0-0.2-0.1-0.3-0.2-0.4c0,0-0.8-1.7-0.8-1.7s0-0.1-0.1,0c-0.1,0-0.2,0.1-0.3,0.2
					c-0.1,0.1-0.1,0.3-0.1,0.4c0,0.1,0,0.2-0.1,0.2s-0.2,0-0.2-0.1c0-0.1-0.1-0.1-0.1-0.2l-0.2-0.3c0-0.1,0-0.2,0.1-0.2
					s0.4-0.2,0.8-0.3l0.6-0.3c0.3-0.2,0.6-0.3,0.7-0.4s0.2-0.1,0.2,0l0.2,0.3c0,0.1,0.1,0.2,0.1,0.2S63.8,84,63.7,84z"/>
				<path class="st1" d="M66.9,84.1c0,0,0,0.1,0,0.1c0,0.3,0.2,0.5,0.1,0.7c0,0-0.1,0.1-0.1,0.1c-0.1,0-0.3,0.1-0.7,0.3L65,85.8
					c-0.1,0-0.2,0-0.2,0s0-0.1,0-0.1c0-0.1,0.1-0.1,0.1-0.2c0-0.2-0.1-0.3-0.1-0.4l-0.7-1.5c-0.1-0.2-0.1-0.3-0.3-0.3
					s-0.2,0-0.2-0.1s0-0.1,0.1-0.1l1-0.5c0.4-0.2,0.7-0.3,0.8-0.4c0.1,0,0.1,0,0.2,0c0,0,0,0,0,0l0.1,0.3c0,0.1,0.1,0.2,0.1,0.3
					c0,0,0,0.1,0,0.2c0,0,0,0,0,0c-0.1,0-0.1,0-0.2-0.1c-0.1-0.1-0.2-0.2-0.3-0.2c-0.2,0-0.4,0.1-0.6,0.2l-0.2,0.1
					c-0.1,0-0.1,0.1-0.1,0.1l0.3,0.7c0,0.1,0.1,0.1,0.2,0l0,0l0.3-0.1l0.4-0.2c0.1,0,0.1,0,0.2,0v0.1c0,0.1,0,0.1,0,0.2
					s-0.1,0.1-0.1,0.1L65.2,84L65,84.1c0,0,0,0.1,0,0.1l0.3,0.6c0.1,0.2,0.1,0.3,0.2,0.3c0.1,0,0.2,0,0.3-0.1
					c0.1-0.1,0.2-0.1,0.3-0.2c0.2-0.1,0.3-0.4,0.3-0.6c0-0.1,0-0.2,0.1-0.2h0.1C66.8,84,66.9,84.1,66.9,84.1z"/>
			</g>
			<g>
				<path class="st1" d="M33.7,98.3c0,0.1-0.1,0.1-0.2,0.1l-0.8-0.2c-0.1,0-0.1-0.1-0.1-0.1s0.1-0.1,0.1-0.1c0.1,0,0.1-0.1,0.2-0.1
					c0.1-0.2,0.1-0.4,0.2-0.6l0.3-1.6l0,0l0,0l-1.2,1.8c0,0.1-0.1,0.1-0.1,0.1h-0.2c-0.1,0-0.1,0-0.1-0.1l-0.5-2.1l0,0l0,0
					c0,0-0.3,1.3-0.4,1.7s0,0.5,0.2,0.6s0.1,0.1,0.1,0.2s-0.1,0.1-0.2,0.1l-0.7-0.1c-0.1,0-0.2-0.1-0.1-0.1s0.1-0.1,0.2-0.2
					s0.2-0.3,0.3-0.7s0.3-1.5,0.3-1.6c0,0,0-0.1,0-0.1c0,0,0-0.1-0.1-0.1s-0.2-0.1-0.1-0.2s0.1-0.1,0.2-0.1l0.7,0.1
					c0.1,0,0.1,0,0.2,0.1l0.4,1.8l0,0l0,0l1-1.5c0-0.1,0.1-0.1,0.2-0.1l0.7,0.1c0.1,0,0.1,0.1,0.1,0.1s-0.1,0.1-0.2,0.1
					s-0.2,0.2-0.2,0.4l-0.3,1.6c0,0.1,0,0.3,0,0.4c0,0.1,0.1,0.1,0.1,0.2C33.6,98.1,33.7,98.2,33.7,98.3z"/>
				<path class="st1" d="M37.2,98.6c0,0,0,0.1-0.2,0.1l-0.8-0.1c-0.1,0-0.1,0-0.1-0.1s0-0.1,0.1-0.1c0,0,0.1,0,0.1-0.1
					c0,0,0-0.1,0-0.1c0-0.1,0-0.1,0-0.2l-0.1-0.4c0,0,0-0.1-0.1-0.1l-1-0.1c0,0,0,0-0.1,0c-0.1,0.2-0.2,0.3-0.2,0.5c0,0,0,0.1,0,0.1
					c0,0.1,0.1,0.1,0.1,0.1c0,0,0,0.1,0,0.1s-0.1,0.1-0.2,0.1l-0.7-0.1c-0.1,0-0.1,0-0.1-0.1s0-0.1,0.1-0.1c0.1,0,0.2-0.1,0.2-0.2
					c0.1-0.1,0.2-0.2,0.2-0.4l1.2-2.1c0,0,0-0.1,0.1-0.1H36c0,0,0.1,0,0.1,0.1c0,0.2,0.6,2.3,0.7,2.5c0,0.1,0.1,0.3,0.2,0.4
					c0,0,0.1,0.1,0.1,0.1C37.1,98.4,37.2,98.5,37.2,98.6C37.2,98.5,37.2,98.6,37.2,98.6z M35.2,97.1C35.2,97.1,35.2,97.2,35.2,97.1
					L35.2,97.1l0.8,0.2l0,0l0,0l-0.3-1.1l0,0l0,0L35.2,97.1z"/>
				<path class="st1" d="M40.6,95.7c0.1,0,0.2,0,0.1,0.1s-0.1,0.1-0.2,0.1s-0.2,0.1-0.2,0.5s-0.1,2.2-0.1,2.3c0,0,0,0.1-0.1,0.1
					h-0.3c0,0-0.1,0-0.1-0.1l-1.5-2.3l0,0l0,0c0,0.4,0,1.3,0,1.5c0,0.4,0.1,0.4,0.3,0.5s0.2,0.1,0.1,0.1s-0.1,0.1-0.2,0.1h-0.8
					c-0.1,0-0.2,0-0.2-0.1s0.1-0.1,0.2-0.1s0.2-0.1,0.3-0.5c0-0.2,0.1-1.8,0.1-1.9c0,0,0,0,0-0.1l-0.1-0.1c-0.1-0.1-0.2-0.1-0.2-0.2
					s0.1-0.1,0.2-0.1h0.6c0.1,0,0.1,0,0.2,0.1L40,98l0,0l0,0c0-0.5,0-1.2,0-1.5S39.9,96,39.8,96s-0.2-0.1-0.2-0.2s0.1-0.1,0.2-0.1
					L40.6,95.7z"/>
				<path class="st1" d="M43.9,95.7c0,0.1-0.1,0.1-0.1,0.1s-0.2,0.1-0.2,0.5c0,0.2,0,0.9,0,1.2c0,0.2,0,0.3,0,0.5
					c-0.3,0.7-1.1,0.9-1.8,0.6c-0.2-0.1-0.4-0.2-0.5-0.4c-0.1-0.2-0.1-0.4-0.1-0.5l-0.1-1.3c0-0.2,0-0.3-0.1-0.4s-0.2-0.1-0.2-0.1
					s0-0.1,0.1-0.1h0.8c0.1,0,0.1,0,0.1,0.1s-0.1,0.1-0.1,0.1s-0.1,0.2-0.1,0.4l0.1,1.2c0,0.2,0,0.3,0.1,0.5
					c0.1,0.3,0.4,0.4,0.7,0.4c0.4,0,0.7-0.3,0.7-0.7c0,0,0-0.1,0-0.1c0-0.2,0-0.4,0-0.6s0-0.5,0-0.6c0-0.3-0.1-0.4-0.2-0.5
					s-0.2,0-0.2-0.1s0-0.1,0.2-0.1h0.8C43.9,95.6,43.9,95.6,43.9,95.7z"/>
				<path class="st1" d="M47.7,97.5c0,0,0,0.1,0,0.1c0,0.3,0,0.5-0.1,0.7c0,0-0.1,0-0.1,0c-0.1,0-0.3,0-0.8,0.1l-1.2,0.2
					c-0.1,0-0.2,0-0.2-0.1s0-0.1,0.1-0.1c0.1,0,0.1-0.1,0.1-0.2c0-0.1,0-0.3,0-0.4l-0.2-1.6c0-0.2,0-0.3-0.2-0.4s-0.1,0-0.2-0.1
					s0-0.1,0.1-0.1l1.1-0.1c0.5-0.1,0.8-0.1,0.9-0.1s0.2,0,0.2,0.1s0,0.2,0,0.3s0,0.2,0,0.3c0,0.1,0,0.1-0.1,0.1c0,0,0,0,0,0
					c-0.1,0-0.1,0-0.2-0.1c-0.1-0.1-0.2-0.2-0.3-0.3c-0.2-0.1-0.4-0.1-0.6,0h-0.2c-0.1,0-0.1,0-0.1,0.1l0.1,0.8
					c0,0.1,0.1,0.1,0.2,0.1l0,0l0.3-0.1l0.4-0.1c0.1,0,0.1,0,0.2,0.1c0,0,0,0.1,0,0.1c0,0.1,0,0.1,0,0.2c-0.1,0-0.1,0-0.2,0
					c-0.2,0-0.3,0-0.6,0H46c0,0,0,0,0,0.1l0.1,0.7c0,0.2,0,0.3,0.1,0.4c0.1,0,0.2,0,0.2,0c0.1,0,0.2,0,0.3-0.1
					c0.2-0.1,0.4-0.3,0.5-0.5c0.1-0.1,0.1-0.2,0.2-0.2h0.1c0.1,0,0.2,0,0.2,0.1S47.8,97.4,47.7,97.5z"/>
				<path class="st1" d="M50.1,95.5c-0.1,0-0.1,0-0.2-0.1c-0.1-0.1-0.2-0.2-0.3-0.3c-0.1,0-0.3,0-0.4,0c-0.1,0-0.1,0-0.1,0.1
					s0.4,1.8,0.4,1.8c0,0.2,0.1,0.3,0.1,0.4c0,0.1,0.1,0.1,0.2,0.1c0,0,0.1,0,0.1,0.1s0,0.1-0.1,0.1L48.9,98c-0.1,0-0.1,0-0.2-0.1
					s0-0.1,0.1-0.1c0.1,0,0.1-0.1,0.1-0.2c0-0.2,0-0.3,0-0.5c0,0-0.4-1.8-0.4-1.8s0-0.1-0.1-0.1c-0.1,0-0.3,0.1-0.4,0.2
					C48,95.5,48,95.7,48,95.8c0,0.1,0,0.2-0.1,0.2s-0.2,0-0.2-0.1s0-0.1,0-0.2s-0.1-0.3-0.1-0.4s0-0.2,0.2-0.2s0.4-0.1,0.8-0.1
					l0.6-0.1c0.4-0.1,0.6-0.2,0.8-0.2s0.2,0,0.2,0.1l0.1,0.4c0,0.1,0,0.2,0.1,0.2S50.2,95.5,50.1,95.5z"/>
			</g>
			<path class="st14" d="M51.3,95.4v1.3l0.4-0.2l0.2-0.1v-1L51.3,95.4z"/>
			<path class="st14" d="M68.7,76.7c-0.4-0.3-1-0.3-1.4-0.1l-0.5,0.2c-1,0.5-2,1-3,1.4l-2.6,1.2l-14.1,6.5l-0.5,0.2l-0.4,0.2l0,0V92
				l-0.3,0.1l-1.2,0.2l-1.1,0.1l-0.9,0.1h-0.8c-0.5,0-1,0-1.5,0h-1.5H38l-0.9-0.1l-1-0.1l-1.2-0.2L34.2,92v-5.6l0,0l-0.4-0.2
				l-0.5-0.2l-14.2-6.5l-2.6-1.2c-1-0.5-2-1-3-1.4l-0.5-0.2c-0.4-0.3-1-0.3-1.4,0c-0.4,0.4-0.6,1-0.5,1.5v9.3c0,0.7,0.4,1.4,1,1.7
				c0.7,0.4,1.4,0.7,2.1,0.9c0.4,0.2,0.7,0.3,1.1,0.5l10.2,4.5l1.6,0.7l1.4,0.6v3.2c0,0.3,0.2,0.5,0.5,0.6l0.9,0.3
				c0.4,0.1,0.8,0.2,1.2,0.3l1.1,0.3l1.1,0.2l1,0.2c0.3,0.1,0.6,0.1,0.9,0.2l0.9,0.1c0.3,0,0.5,0.1,0.8,0.1l0.7,0.1h0.7h0.6l1.4,0.1
				h1.6h0.5h0.6l0.7-0.1l0.8-0.1l0.8-0.1l0.9-0.2l1-0.2l1-0.2l1.1-0.3l1.2-0.3c0.4-0.1,0.8-0.2,1.2-0.4c0.3-0.1,0.5-0.3,0.5-0.6
				v-3.3l1.4-0.6l1.6-0.7L65,90.6l1.1-0.5c0.7-0.3,1.4-0.6,2.1-0.9c0.6-0.3,1-1,1-1.7v-9.2C69.3,77.6,69.1,77.1,68.7,76.7z
				 M46.8,86.9l2,1.8l1.1,1l1.2,1.1l-1.1,0.3c-0.5,0.1-1,0.3-1.5,0.4s-0.9,0.2-1.4,0.3l-0.3,0.1L46.8,86.9z M33.6,86.9v4.9
				c-0.4-0.1-0.8-0.2-1.3-0.3c-0.4-0.1-1-0.2-1.5-0.4s-1-0.3-1.5-0.5l1.2-1l1.1-1L33.6,86.9z M28.7,90.5c-0.1,0.1-0.2,0.3-0.2,0.5
				v4.7l-1.1-0.5l-1.6-0.7L15.6,90c-0.4-0.2-0.7-0.3-1.1-0.5c-0.7-0.3-1.4-0.6-2-0.9c-0.4-0.2-0.7-0.7-0.7-1.1v-9.3
				c0-0.4,0-0.8,0.2-1c0.1-0.1,0.2-0.1,0.3-0.1c0.2,0,0.3,0.1,0.4,0.1l0.5,0.2c1,0.5,2,1,3,1.4l2.6,1.2L33,86.5h0.1l-2,1.8l-1.1,1
				L28.7,90.5z M51.3,99.6L51.3,99.6l-1.2,0.4l-1.1,0.3l-1.1,0.3l-1,0.2l-1,0.2l-0.9,0.2l-0.8,0.1l-0.8,0.1c-0.2,0-0.5,0-0.7,0.1
				h-0.6h-0.5h-0.4c-0.9,0-1.6,0-2.4,0c-0.2,0-0.4,0-0.6,0h-0.6l-0.7-0.1l-0.8-0.1l-0.9-0.1l-0.9-0.2l-1-0.2l-1-0.2l-1.1-0.3
				c-0.4-0.1-0.8-0.2-1.2-0.3l-0.8-0.3l0,0v-8.2c0.5,0.2,1,0.3,1.6,0.5s1,0.3,1.5,0.4c0.5,0.1,0.9,0.2,1.4,0.3l1.3,0.2l1.2,0.2
				l1,0.1h1h0.8c0.4,0,0.9,0,1.3,0h0.6c0.4,0,0.8,0,1.3,0h0.8l0.9-0.1l1.1-0.1l1.2-0.2c0.4-0.1,0.9-0.2,1.3-0.2s0.9-0.2,1.4-0.3
				s1-0.3,1.5-0.4l1.1-0.3L51.3,99.6z M68.5,78.2c0,0.1,0,0.1,0,0.2c0,1.2,0,2.4,0,3.6v5.5c0,0.5-0.3,0.9-0.7,1.1
				c-0.7,0.3-1.3,0.6-2,0.9L64.8,90l-10.2,4.5L53,95.2l-1.1,0.5V91c0-0.2-0.1-0.4-0.2-0.5l-1.4-1.2l-1.1-1c-0.6-0.6-1.3-1.2-2-1.7
				h0.1l14.2-6.4l2.6-1.2c1-0.5,2-1,3-1.4l0.5-0.2c0.4-0.2,0.6-0.1,0.8,0S68.5,77.8,68.5,78.2z"/>
		</g>
	</g>
</g>
<image style="overflow:visible;" width="500" height="153" xlink:href="kirby_logo.png"  transform="matrix(0.5929 0 0 0.5929 246.1324 8.6357)">
</image>
</svg>
